<?xml version="1.0" encoding="utf-8"?>
<!-- Generator: Adobe Illustrator 26.0.0, SVG Export Plug-In . SVG Version: 6.00 Build 0)  -->
<svg version="1.1" id="Layer_1" xmlns="http://www.w3.org/2000/svg" xmlns:xlink="http://www.w3.org/1999/xlink" x="0px" y="0px"
	 viewBox="0 0 500 500" style="enable-background:new 0 0 500 500;" xml:space="preserve">
<style type="text/css">
	.st0{fill:#FED54D;}
	.st1{fill:#FEAD0F;}
	.st2{fill:#FEFEFC;}
	.st3{fill:#FEFEFD;}
	.st4{fill:#FEECB2;}
	.st5{fill:#FED34A;}
	.st6{fill:#FECB3E;}
	.st7{fill:#FECE42;}
	.st8{fill:#FED147;}
	.st9{fill:#FECF44;}
	.st10{fill:#FEBE29;}
	.st11{fill:#FEC93A;}
	.st12{fill:#FEC12D;}
	.st13{fill:#FEB013;}
	.st14{fill:#FEB318;}
	.st15{fill:#FEC230;}
	.st16{fill:#FEB51B;}
	.st17{fill:#FEC737;}
	.st18{fill:#FEB81F;}
	.st19{fill:#FEBC26;}
	.st20{fill:#FEBA22;}
	.st21{fill:#FEC433;}
	.st22{fill:#FEC635;}
	.st23{fill:#FEAC0D;}
	.st24{fill:#FEAE11;}
	.st25{fill:#FEC861;}
	.st26{fill:#FEECB0;}
	.st27{fill:#FED249;}
	.st28{fill:#FED045;}
	.st29{fill:#FECE41;}
	.st30{fill:#FECC3E;}
	.st31{fill:#FEC02C;}
	.st32{fill:#FEC331;}
	.st33{fill:#FECA3C;}
	.st34{fill:#FEC533;}
	.st35{fill:#FEC736;}
	.st36{fill:#FEC839;}
	.st37{fill:#FEB014;}
	.st38{fill:#FEBA23;}
	.st39{fill:#FEAE10;}
	.st40{fill:#FEEAC4;}
	.st41{fill:#FEF5D3;}
	.st42{fill:#FEC12E;}
	.st43{fill:#FEBF2B;}
	.st44{fill:#FEC534;}
	.st45{fill:#FEBD28;}
	.st46{fill:#FEB216;}
	.st47{fill:#FEAB0C;}
	.st48{fill:#FEB922;}
	.st49{fill:#FEBB25;}
	.st50{fill:#FEB71F;}
	.st51{fill:#FEB419;}
	.st52{fill:#FEB51C;}
	.st53{fill:#FEB115;}
	.st54{fill:#FEAD10;}
	.st55{fill:#FEAF12;}
	.st56{fill:#FEE180;}
	.st57{fill:#FED044;}
	.st58{fill:#FECA3B;}
	.st59{fill:#FECB3D;}
	.st60{fill:#FECD41;}
	.st61{fill:#FECC3F;}
	.st62{fill:#FECF43;}
	.st63{fill:#FEBF2A;}
	.st64{fill:#FEBB24;}
	.st65{fill:#FEB921;}
	.st66{fill:#FEF1C5;}
	.st67{fill:#FEE9A5;}
	.st68{fill:#FEF4D1;}
	.st69{fill:#FEFDFB;}
	.st70{fill:#FEFDFC;}
	.st71{fill:#FEDE77;}
	.st72{fill:#FEE8A3;}
	.st73{fill:#FEDA8D;}
	.st74{fill:#FEE6A0;}
	.st75{fill:#FED96F;}
	.st76{fill:#FEE39C;}
	.st77{fill:#FEE097;}
	.st78{fill:#FED264;}
	.st79{fill:#FEDC73;}
	.st80{fill:#FEDD92;}
	.st81{fill:#FECD5D;}
	.st82{fill:#FEC651;}
	.st83{fill:#FED66A;}
	.st84{fill:#FEC048;}
	.st85{fill:#FECA57;}
	.st86{fill:#FED248;}
	.st87{fill:#FED146;}
	.st88{fill:#FEC838;}
	.st89{fill:#FEC432;}
	.st90{fill:#FEBC25;}
	.st91{fill:#FEBD27;}
	.st92{fill:#FEFBF6;}
	.st93{fill:#FEECC6;}
	.st94{fill:#FEB41A;}
	.st95{fill:#FEB61D;}
	.st96{fill:#FEB820;}
	.st97{fill:#FEAA0A;}
	.st98{fill:#FEAB0B;}
	.st99{fill:#FED44B;}
	.st100{fill:#FED046;}
	.st101{fill:#FEC738;}
	.st102{fill:#FEC636;}
	.st103{fill:#FEC22F;}
	.st104{fill:#FEC02D;}
	.st105{fill:#FEAF11;}
	.st106{fill:#F58711;}
	.st107{fill:#FBAA2A;}
	.st108{fill:#FAA521;}
</style>
<g>
	<g>
		<path class="st0" d="M121,60.8c-2.9-3.4-5.7-6.8-8.6-10.3c-7.6-9.2-15.2-18.4-22.9-27.5c-0.7-0.9-1.4-1.7-1.9-2.7
			c0-0.7,0-1.4,0-2.2c0.2-0.5,0.4-0.9,0.9-1.2c1.2-0.9,2.3-1.9,3.4-2.9c0.4-0.4,0.8-0.6,1.4-0.5c0.4,0,0.9-0.1,1.3,0.1
			c1.1,0.2,1.9,0.8,2.6,1.6c5.2,6.3,10.5,12.6,15.7,19c5.2,6.3,10.4,12.5,15.6,18.8c0.2,0.2,0.3,0.5,0.4,0.7c-1,1.4-2.4,2.2-3.6,3.3
			C123.9,58.2,122.5,59.6,121,60.8z"/>
		<path class="st1" d="M150,94.9c-0.1-0.1-0.2-0.2-0.2-0.3c-0.3-0.7,0.3-1,0.7-1.3c2-1.5,3.9-3.1,5.7-4.9c0.3-0.3,0.6-0.6,1-0.2
			c0.1,0.2,0,0.4,0.3,0.5c0,0.4,0,0.8,0,1.2c-0.7,2.8-2.7,4.2-5.3,5C151.4,94.9,150.7,94.9,150,94.9z"/>
		<path class="st2" d="M93.1,13.5c-1.9,1.4-3.7,3-5.5,4.6c0-1.4,0-2.8,0-4.3c0-0.5,0.1-0.5,0.6-0.5c1.7,0,3.3,0,5,0
			C93.2,13.4,93.2,13.4,93.1,13.5C93.2,13.5,93.1,13.5,93.1,13.5z"/>
		<path class="st3" d="M152.1,94.9c2.2-1.2,4.3-2.5,5.3-5c0,1.5,0,3,0,4.4c0,0.5-0.1,0.6-0.6,0.6C155.3,94.8,153.7,94.9,152.1,94.9z
			"/>
		<path class="st4" d="M93.1,13.5c0-0.1,0-0.1,0-0.2c0.5,0,1,0,1.4,0c0,0.1,0,0.1,0,0.2C94.1,13.5,93.6,13.5,93.1,13.5z"/>
		<path class="st5" d="M121,60.8c0.5-1.3,1.8-1.9,2.7-2.7c1.7-1.6,3.3-3.2,5.2-4.4c2.1,2.3,4.2,4.6,6,7.2c-0.1,0.5-0.4,0.8-0.8,1
			c-2.4,1.6-4.3,3.8-6.6,5.5c-0.2,0.2-0.4,0.4-0.7,0.4C124.7,65.5,122.8,63.2,121,60.8z"/>
		<path class="st6" d="M134.9,77.6c-1-1-1.9-2.1-2.7-3.3c1.4-1.7,3.3-2.9,5-4.4c0.7-0.6,1.4-1.3,2.1-2c0.3-0.3,0.6-0.7,1.1-0.6
			c0.9,1,1.8,1.9,2.5,3c0.2,0.5-0.2,0.8-0.5,1C139.7,73.3,137.5,75.6,134.9,77.6z"/>
		<path class="st7" d="M140.3,67.3c-2.2,2.2-4.7,4.1-7,6.2c-0.4,0.3-0.7,0.6-1.2,0.8c-0.7-0.6-1.3-1.4-1.8-2.2
			c0.2-1.2,1.2-1.6,1.9-2.3c1.6-1.5,3.2-3.1,5-4.4c0.4-0.3,0.8-0.6,1.3-0.3C139.1,65.8,139.7,66.6,140.3,67.3z"/>
		<path class="st8" d="M126.7,67.7c1.2-1.6,3-2.5,4.3-3.9c1.1-1.2,2.5-2,3.8-3.1c0.8,0.6,1.3,1.4,1.9,2.2c-1.1,1.2-2.1,2.3-3.4,3.2
			c-1,0.7-1.8,1.7-2.7,2.5c-0.6,0.5-1.1,1.3-2,1.3C127.9,69.3,127.3,68.5,126.7,67.7z"/>
		<path class="st9" d="M128.6,69.9c2.3-2.1,4.7-4.1,7-6.2c0.3-0.3,0.6-0.8,1.1-0.8c0.6,0.7,1.3,1.3,1.8,2.1c-0.9-0.1-1.4,0.7-2,1.2
			c-1.6,1.4-3.1,2.9-4.6,4.3c-0.5,0.5-1.2,0.7-1.6,1.4C129.7,71.4,129.1,70.7,128.6,69.9z"/>
		<path class="st10" d="M143,87.4c-0.6-0.5-1-1.2-1.5-1.8c-0.2-0.5,0-0.7,0.3-1c2.2-2.1,4.7-3.8,6.8-6c0.2-0.2,0.4-0.4,0.7-0.3
			c0.5,0.6,1.1,1.1,1.5,1.8c0.1,0.5-0.3,0.7-0.6,1C148,83.3,145.4,85.2,143,87.4z"/>
		<path class="st11" d="M134.9,77.6c0.1-0.6,0.5-0.8,0.9-1.2c2.4-1.9,4.7-4,7-6.1c0.6,0.6,1.2,1.2,1.6,2c-1.9,1.5-3.7,3.2-5.6,4.6
			c-0.9,0.7-1.4,1.9-2.5,2.3C135.7,78.8,135.3,78.2,134.9,77.6z"/>
		<path class="st12" d="M149.5,78.3c-2.4,2.4-5.1,4.4-7.6,6.6c-0.2,0.1-0.2,0.4-0.3,0.6c-0.6-0.5-1.1-1-1.4-1.7
			c-0.1-0.5,0.2-0.6,0.5-0.8c2.4-1.8,4.4-3.9,6.5-6c0.3-0.2,0.5-0.6,0.9-0.4C148.5,77.2,149,77.8,149.5,78.3z"/>
		<path class="st13" d="M157.1,88.1c-0.2,0-0.4,0-0.5,0.1c-2,2.1-4.2,3.8-6.4,5.6c-0.3,0.2-0.5,0.4-0.5,0.8
			c-0.7-0.2-1.3-0.5-1.7-1.2c-0.1-0.8,0.6-1.2,1.1-1.6c2.1-1.6,4-3.3,5.8-5.1c0.3-0.3,0.5-0.6,1-0.5C156.6,86.7,157,87.4,157.1,88.1
			z"/>
		<path class="st14" d="M156,86.2c-2.5,2.6-5.4,4.6-7.9,7.2c-0.4-0.3-0.7-0.7-1-1.2c-0.3-0.6,0.2-1,0.6-1.3c2.2-1.6,3.9-3.8,6.1-5.4
			c0.4-0.3,0.7-0.9,1.3-0.5C155.4,85.4,155.8,85.7,156,86.2z"/>
		<path class="st15" d="M148.1,76.6c-0.9,0.8-1.8,1.6-2.6,2.5c-1.6,1.7-3.5,3.2-5.3,4.7c-0.4-0.3-0.7-0.7-1-1.2
			c-0.2-0.6,0.3-0.8,0.6-1.1c1.9-1.5,3.7-3.1,5.4-4.9c0.5-0.6,1.1-1.2,2-1.2C147.4,75.8,147.9,76.1,148.1,76.6z"/>
		<path class="st16" d="M155,85c-1.2,0.4-1.9,1.4-2.8,2.2c-1.6,1.4-3,2.9-4.7,4.2c-0.3,0.2-0.4,0.5-0.4,0.8c-0.4-0.3-0.7-0.7-1-1.2
			c-0.3-0.5,0-0.9,0.4-1.2c2.3-2,4.3-4.3,6.8-6c0.2-0.2,0.5-0.3,0.8-0.1C154.4,84.2,154.8,84.5,155,85z"/>
		<path class="st17" d="M136.3,79.3c2.1-2.7,5-4.5,7.4-6.8c0.1-0.1,0.4-0.1,0.7-0.2c0.3,0.3,0.5,0.6,0.8,0.9
			c0.1,0.4-0.1,0.7-0.4,0.9c-2.8,1.9-4.9,4.4-7.3,6.6C137,80.3,136.6,79.8,136.3,79.3z"/>
		<path class="st18" d="M154,83.8c-0.9,0.7-1.9,1.2-2.8,2c-1.5,1.4-2.9,2.9-4.4,4.2c-0.3,0.3-0.7,0.6-0.7,1.1
			c-0.5-0.4-0.9-0.9-1.2-1.5c-0.2-0.4,0.1-0.7,0.4-0.9c2.1-1.9,4.2-3.7,6.3-5.6c0.4-0.3,0.8-0.9,1.4-0.5
			C153.4,83,153.8,83.3,154,83.8z"/>
		<path class="st19" d="M143,87.4c0.7-1.4,2-2.1,3.1-3c1.6-1.4,3.3-2.7,4.8-4.2c0.4,0.4,0.7,0.9,1.1,1.3c-1,1.3-2.3,2.2-3.5,3.3
			c-1.3,1.1-2.6,2.1-3.7,3.3c-0.2,0.2-0.5,0.6-0.9,0.4C143.6,88.1,143.3,87.7,143,87.4z"/>
		<path class="st20" d="M143.9,88.4c0.9-0.4,1.3-1.4,2.1-2c1.9-1.5,3.7-3.1,5.5-4.7c0.1-0.1,0.3-0.2,0.5-0.2c0.3,0.4,0.7,0.8,1,1.2
			c-1.3,0.3-1.9,1.5-2.9,2.2c-1.9,1.4-3.6,3.1-5.2,4.8C144.5,89.3,144,89,143.9,88.4z"/>
		<path class="st21" d="M147.1,75.4c-2.6,2.1-4.7,4.8-7.5,6.7c-0.2,0.1-0.3,0.4-0.4,0.6c-0.4-0.3-0.8-0.7-1-1.2
			c-0.2-0.4,0.2-0.6,0.4-0.8c2.3-1.9,4.2-4.2,6.6-5.9c0.3-0.2,0.5-0.5,0.9-0.4C146.6,74.7,146.9,75,147.1,75.4z"/>
		<path class="st22" d="M146.2,74.5c-2.9,2.1-5.3,4.8-8,7c-0.2-0.3-0.5-0.5-0.7-0.8c0-0.5,0.3-0.7,0.6-1c2.1-2.1,4.1-4.3,6.6-5.9
			c0.2-0.1,0.3-0.4,0.5-0.6C145.5,73.6,145.9,74,146.2,74.5z"/>
	</g>
	<g>
		<path class="st3" d="M412.5,14.5L412.5,14.5l-0.2,0c-0.6-2.3-2.9-2.8-4.4-4.2c-0.5-0.5-1.4-0.6-1.6-1.5c0-0.1,0.1-0.2,0.2-0.3
			c1.8,0,3.6,0,5.4,0c0.5,0,0.6,0.1,0.6,0.6C412.5,10.9,412.5,12.7,412.5,14.5z"/>
		<path class="st23" d="M356.9,94.8c-0.1,0-0.3,0.1-0.4,0.1c-0.5,0.2-1,0-1.5,0.1c-2.4-0.1-5.1-2.5-5.7-4.9c0-0.2,0-0.5,0-0.7
			c0.6-0.4,1.1-0.1,1.5,0.3c1.6,1.4,3.5,2.5,5.3,3.7C356.5,93.6,357.2,94,356.9,94.8z"/>
		<path class="st24" d="M356.9,94.8c-0.2-0.9-1-1.2-1.6-1.6c-1.6-1-3.2-2-4.7-3.3c-0.4-0.3-0.8-0.6-1.4-0.5c0-0.2,0-0.5,0-0.7
			c0.2-0.2,0.3-0.3,0.5-0.5c0.6-0.7,1.2-0.2,1.7,0.1c1.7,1.1,3.4,2.2,4.9,3.5c0.4,0.4,0.9,0.7,1.4,1.1c0.3,0.2,0.8,0.5,0.6,1
			C358,94.4,357.5,94.6,356.9,94.8z"/>
		<path class="st3" d="M349.2,90.1c1,2.5,3.1,3.9,5.5,4.8c0.1,0,0.1,0.1,0.1,0.1c0,0.1,0,0.1-0.1,0.1c-1.6,0-3.3,0-4.9,0
			c-0.5,0-0.6-0.1-0.6-0.6C349.3,93,349.2,91.5,349.2,90.1z"/>
		<path class="st25" d="M354.7,95.1c0-0.1,0-0.1,0-0.2c0.6,0,1.2,0,1.8,0c0,0.1,0,0.1,0,0.2C355.9,95.1,355.3,95.1,354.7,95.1z"/>
		<path class="st26" d="M406.5,8.5c0,0.1,0,0.2,0,0.3c-0.5,0.3-1,0.4-1.4-0.1c0-0.1,0-0.1,0-0.2C405.6,8.5,406.1,8.5,406.5,8.5z"/>
		<path class="st0" d="M405.1,8.7c0.5,0,0.9,0,1.4,0.1c1.4,1,2.7,2.1,4.2,3c1,0.7,1.8,1.4,1.7,2.7c-0.1,0.9-0.4,1.6-0.9,2.3
			c-9.3,13.6-18.6,27.1-27.9,40.7c-0.2,0.2-0.4,0.4-0.5,0.6c-1.1-0.4-1.8-1.4-2.8-2c-2.1-1.3-3.9-2.9-5.8-4.5
			c7.7-11.3,15.4-22.5,23.1-33.8c1.6-2.4,3.3-4.7,4.9-7.1C403.1,9.8,403.9,9,405.1,8.7z"/>
		<path class="st5" d="M374.4,51.7c0.7,0.1,1.4,0.6,1.8,1.1c1.8,1.9,4.2,2.9,6.1,4.6c0.3,0.2,0.5,0.5,0.7,0.8
			c-1.1,1.8-2.2,3.5-3.5,5.2c-2.6-2-5.1-4.1-8-5.7c-0.3-0.2-0.5-0.3-0.7-0.6C371.9,55.1,373.2,53.4,374.4,51.7z"/>
		<path class="st27" d="M370.8,57c3.1,1.5,5.7,3.7,8.4,5.8c0.1,0.1,0.1,0.4,0.2,0.5c-0.7,1.2-1.5,2.4-2.4,3.5
			c-0.8,0.1-1.2-0.6-1.7-0.9c-2.4-1.7-4.8-3.3-7.3-4.8C368.9,59.6,369.9,58.3,370.8,57z"/>
		<path class="st28" d="M368.1,61c0.3-0.1,0.6-0.3,0.9,0c2.5,2.1,5.6,3.6,8.1,5.8c-0.6,1.1-1.3,2.2-2.1,3.1
			c-0.3,0.2-0.5-0.1-0.8-0.2c-2.6-1.6-4.9-3.6-7.3-5.3c-0.3-0.2-0.5-0.4-0.6-0.7C366.8,62.8,367.3,61.8,368.1,61z"/>
		<path class="st29" d="M366.3,63.7c3,2,5.6,4.4,8.7,6.3c-0.6,1.1-1.4,2.2-2.2,3.2c-2.7-2.3-5.7-4.3-8.6-6.3
			C364.7,65.7,365.5,64.7,366.3,63.7z"/>
		<path class="st30" d="M364.1,66.8c0.2,0,0.4,0,0.5,0c1.9,1.4,4.1,2.4,5.8,4c0.6,0.5,1.1,1.2,1.8,1.5c0.3,0.1,0.5,0.4,0.5,0.8
			c-0.4,0.8-0.9,1.5-1.4,2.1c-0.2,0.1-0.4,0-0.6-0.1c-2.7-2.1-5.8-3.6-8.3-5.9C363,68.4,363.6,67.6,364.1,66.8z"/>
		<path class="st31" d="M355.9,78.8c0.4-0.6,0.9-1.3,1.3-1.9c0.5-0.4,0.9-0.1,1.3,0.2c2.5,1.6,4.9,3.4,7.3,5.3
			c0.2,0.1,0.4,0.3,0.3,0.6c-0.4,0.7-0.8,1.5-1.5,2.1c-2.7-2.1-5.5-3.8-8.3-5.8C356.2,79.1,356,79,355.9,78.8z"/>
		<path class="st32" d="M366,82.9c-2.5-2-5-3.8-7.6-5.6c-0.4-0.2-0.7-0.5-1.2-0.4c0.4-0.6,0.9-1.3,1.3-1.9c0.4-0.2,0.7-0.1,1,0.1
			c1.4,0.9,2.8,1.7,4,2.9c0.8,0.9,2,1.3,2.9,2.1c0.3,0.3,0.9,0.5,0.8,1.1C366.9,81.8,366.6,82.4,366,82.9z"/>
		<path class="st33" d="M362.4,69.2c0.5-0.1,1,0.3,1.3,0.6c1.5,1.5,3.3,2.5,5.2,3.6c0.9,0.5,1.6,1.2,2.5,1.9
			c-0.5,0.5-0.6,1.3-1.2,1.7c-1-0.3-1.8-1-2.6-1.6c-1.8-1.2-3.6-2.3-5.3-3.6c-0.3-0.2-0.7-0.4-0.8-0.9
			C361.6,70.2,362.1,69.7,362.4,69.2z"/>
		<path class="st10" d="M355.9,78.8c1.8,0.5,2.9,2,4.4,2.9c1.2,0.7,2.4,1.6,3.5,2.4c0.3,0.2,0.7,0.4,0.7,0.9c-0.3,0.5-0.5,1.1-1,1.5
			c-2.1-1.3-4-2.7-6.1-4.1c-0.9-0.6-1.8-1.3-2.8-1.7C354.9,79.9,355.5,79.4,355.9,78.8z"/>
		<path class="st34" d="M367.2,81.1c-0.2-0.5-0.7-0.7-1.2-1c-2.3-1.5-4.2-3.6-6.7-4.8c-0.3-0.1-0.5-0.4-0.8-0.4
			c0.3-0.4,0.5-0.8,0.8-1.2c0.5-0.5,0.9-0.3,1.4,0c1,0.7,2,1.3,2.9,2.1c1.1,0.9,2.2,1.8,3.4,2.5c0.5,0.3,1.2,0.6,1.1,1.4
			C367.9,80.3,367.6,80.8,367.2,81.1z"/>
		<path class="st18" d="M352.4,84.1c0.2-0.6,0.5-1.1,1-1.4c0.4-0.3,0.8-0.1,1.1,0.2c2,1.9,4.5,3.1,6.6,4.8c0.4,0.3,1,0.6,0.9,1.3
			c-0.3,0.5-0.5,1-1,1.4c-1.5-0.8-2.8-1.8-4.1-2.9C355.4,86.3,353.9,85.1,352.4,84.1z"/>
		<path class="st35" d="M368.2,79.8c-0.6-1-1.7-1.3-2.6-2c-1.6-1.3-3.2-2.6-5-3.7c-0.4-0.2-0.8-0.6-1.3-0.3c0.3-0.5,0.7-1,1-1.4
			c0.7-0.5,1.3-0.1,1.7,0.3c1.9,1.9,4.4,3,6.4,4.7c0.3,0.3,0.8,0.4,0.7,1C368.9,78.9,368.6,79.4,368.2,79.8z"/>
		<path class="st36" d="M369.2,78.4c-1.3-1-2.6-2-4-3c-1.1-0.7-2.1-1.4-3-2.3c-0.5-0.5-1.1-0.8-1.8-0.8c0.4-0.5,0.7-1,1.1-1.5
			c2.8,2.1,6,3.8,8.7,6.1C369.8,77.4,369.5,77.9,369.2,78.4z"/>
		<path class="st37" d="M358.3,93.9c-1.4-1.1-2.7-2.3-4.1-3.4c-1-0.8-2.1-1.4-3.1-2.1c-0.4-0.3-0.9-0.5-1.4-0.3
			c0.2-0.7,0.7-1.3,1.2-1.9c0.2-0.1,0.4,0,0.5,0.1c1.8,1.5,3.9,2.5,5.5,4.1c0.5,0.5,1.1,0.8,1.6,1.2c0.4,0.3,0.9,0.5,0.7,1.1
			C359.1,93.2,358.8,93.6,358.3,93.9z"/>
		<path class="st14" d="M359.3,92.7c-1.6-1.3-3.2-2.7-4.9-3.9c-1.2-0.8-2.4-1.7-3.5-2.6c0.3-0.4,0.3-0.9,0.8-1.2
			c0.3-0.3,0.5-0.1,0.7,0.1c2.6,1.6,4.7,3.8,7.3,5.4c0.3,0.2,0.7,0.4,0.5,0.8C360,91.8,359.7,92.3,359.3,92.7z"/>
		<path class="st38" d="M361.9,88.9c-1-1.3-2.5-2.1-3.9-3c-1.4-0.9-2.7-1.8-3.8-2.9c-0.2-0.2-0.5-0.3-0.9-0.3c0.2-0.4,0.3-0.7,0.7-1
			c0.5-0.4,0.9-0.2,1.3,0.1c2,1.7,4.5,2.8,6.6,4.5c0.4,0.3,0.9,0.5,1,1.1C362.6,87.9,362.3,88.4,361.9,88.9z"/>
		<path class="st16" d="M360.3,91.3c-2.5-1.5-4.4-3.7-7-5.1c-0.6-0.3-0.8-1.1-1.6-1.2c0.2-0.4,0.3-0.8,0.7-1c1,0,1.6,0.7,2.3,1.2
			c1.9,1.4,3.8,2.8,5.7,4.3c0.2,0.2,0.6,0.3,0.6,0.7C360.7,90.6,360.7,91.1,360.3,91.3z"/>
		<path class="st19" d="M362.9,87.4c-2-1.4-3.9-3.1-6.2-4.2c-0.9-0.5-1.4-1.7-2.7-1.6c0.1-0.4,0.3-0.7,0.6-1c0.9-0.3,1.4,0.4,2,0.8
			c2,1.3,4,2.7,6,4.1c0.4,0.2,0.7,0.5,0.9,0.9C363.5,86.8,363.2,87.2,362.9,87.4z"/>
	</g>
	<g>
		<path class="st0" d="M450.2,286.2c5.1,1.8,10.3,3.7,15.4,5.5c10.4,3.8,20.8,7.5,31.1,11.3c1.6,0.6,2.8,1.6,3.1,3.3
			c0.2,0.4,0.1,0.7,0.1,1.1c0,1.7-0.8,3.1-1.5,4.6c-0.6,1.1-1.7,1.6-2.9,1.8c-0.6,0-1.1,0-1.7,0c-1.5-0.9-3.1-1.3-4.7-1.9
			c-14.2-5.2-28.4-10.3-42.6-15.4c-0.1,0-0.1-0.1-0.2-0.1c0.7-0.6,1-1.5,1.2-2.3C448.4,291.3,449.4,288.8,450.2,286.2z"/>
		<path class="st39" d="M405.6,281.4c-0.8-0.3-1.2-0.8-1.6-1.5c1.3-2.7,2.1-5.6,3.1-8.4c0.1-0.1,0.2-0.2,0.2-0.3c0.6,0,1.1,0,1.7,0
			c0.3,0.4,0.1,0.7,0,1.1c-0.8,2.9-2.2,5.5-2.9,8.4C406,281.1,405.9,281.3,405.6,281.4z"/>
		<path class="st13" d="M405.6,281.4c0.6-3.1,2.2-5.8,2.9-8.8c0.1-0.5,0.6-0.8,0.5-1.3c0.2,0,0.3,0,0.5,0c0,0.1,0,0.1,0,0.2
			c0.8,0.2,0.9,0.7,0.8,1.4c-0.4,1.8-1.2,3.4-1.8,5.1c-0.4,1.1-0.8,2.1-1.1,3.3c-0.1,0.3-0.2,0.6-0.5,0.7
			C406.3,281.9,405.9,281.8,405.6,281.4z"/>
		<path class="st3" d="M495.6,313.7c3.1-1,3.5-3.7,4.3-6.2c0.1-0.1,0.1-0.1,0.2,0c0,1.9,0,3.8,0,5.6c0,0.5-0.1,0.6-0.6,0.6
			C498.2,313.7,496.9,313.7,495.6,313.7z"/>
		<path class="st3" d="M407.3,271.3c0,0.1,0,0.1,0,0.2c-2.3,1.1-2.8,3.5-3.8,5.5c-0.1,0.1-0.2,0.1-0.3,0c0-1.7,0-3.5,0-5.2
			c0-0.4,0.1-0.6,0.5-0.6C404.9,271.3,406.1,271.3,407.3,271.3z"/>
		<path class="st40" d="M403.2,277.1c0.1,0,0.1,0,0.2,0c0.4,0.5,0.4,1,0,1.5c-0.1,0-0.1,0-0.2,0C403.2,278,403.2,277.5,403.2,277.1z
			"/>
		<path class="st41" d="M500.1,307.5c-0.1,0-0.1,0-0.2,0c0-0.4,0-0.8,0-1.2c0.1,0,0.2,0,0.2,0C500.1,306.7,500.1,307.1,500.1,307.5z
			"/>
		<path class="st5" d="M450.2,286.2c0.2,0.4,0.3,0.7,0.1,1.1c-1,2-1.6,4.1-2.2,6.2c-0.2,0.8-0.8,1.4-0.9,2.3
			c-0.1,0.4-0.5,0.5-0.8,0.5c-1.8-0.5-3.6-1.1-5.3-1.9c0.9-3.5,2-6.9,3.4-10.3C446.4,284.8,448.3,285.5,450.2,286.2z"/>
		<path class="st27" d="M444.5,284.1c0.1,1-0.5,1.7-0.7,2.6c-0.6,2.4-1.8,4.7-2.2,7.2c0,0.2-0.3,0.3-0.4,0.4c-1.4-0.3-2.7-0.9-4-1.5
			c-0.1-0.4-0.1-0.8,0.1-1.2c1-2.9,2.1-5.7,2.9-8.6c0.1-0.2,0.2-0.4,0.4-0.5C441.8,283.1,443.1,283.6,444.5,284.1z"/>
		<path class="st28" d="M440.4,282.6c-0.6,3-1.9,5.8-2.9,8.7c-0.2,0.5-0.1,1.1-0.5,1.6c-1.3-0.4-2.6-0.8-3.9-1.4
			c0.5-0.8,0.8-1.6,1-2.5c0.5-2.4,1.6-4.6,2.4-6.9c0.1-0.3,0.3-0.5,0.5-0.7C438.2,281.8,439.3,282.2,440.4,282.6z"/>
		<path class="st29" d="M437,281.4c-1,3-2.4,5.9-3,9c-0.1,0.4-0.3,0.9-0.9,1c-1.2-0.3-2.3-0.7-3.3-1.2c0.9-3.1,2.2-6,3.2-9
			c0.1-0.4,0.2-0.9,0.7-1C434.9,280.4,435.9,281.1,437,281.4z"/>
		<path class="st30" d="M433.7,280.2c-1.1,3.1-2.2,6.3-3.3,9.4c-0.1,0.3-0.1,0.6-0.5,0.6c-0.9-0.2-1.8-0.5-2.6-0.9
			c-0.2-0.5,0-1,0.1-1.4c1-2.4,1.7-4.8,2.6-7.2c0.2-0.6,0.3-1.2,0.9-1.5C431.8,279.4,432.7,279.8,433.7,280.2z"/>
		<path class="st33" d="M430.8,279.2c-1.2,3.4-2.4,6.7-3.6,10.1c-0.7-0.1-1.3-0.4-1.9-0.7c-0.1-0.2-0.1-0.4,0-0.6
			c1-2.9,1.8-5.9,3-8.8c0.1-0.3,0.3-0.6,0.6-0.7C429.6,278.6,430.2,278.8,430.8,279.2z"/>
		<path class="st42" d="M420.3,275.4c0.7,0.1,1.3,0.4,1.9,0.7c0.6,0.3,0.5,0.8,0.4,1.4c-0.3,1.3-0.6,2.5-1.2,3.7
			c-0.6,1.3-1.1,2.6-1.4,4c-0.1,0.5-0.3,0.9-0.7,1.2c-0.7-0.1-1.3-0.4-1.9-0.7c-0.3-0.5-0.1-0.9,0-1.4c0.6-2.4,1.7-4.6,2.4-7
			C420,276.7,420.2,276.1,420.3,275.4z"/>
		<path class="st43" d="M420.3,275.4c0.6,0.5,0.2,1,0.1,1.6c-0.9,3-2.4,5.8-3,8.8c-0.8-0.1-1.5-0.4-2.1-0.8c1-3.1,2.4-6,3.1-9.1
			c0.1-0.4,0.3-0.7,0.7-0.9C419.5,275,419.9,275.1,420.3,275.4z"/>
		<path class="st32" d="M419.3,286.4c0.5-2.1,1.2-4.2,2.1-6.2c0.6-1.3,1.1-2.7,0.8-4.2c0.8,0,1.4,0.6,2.1,0.8c0.2,1.1-0.3,2.1-0.6,3
			c-0.8,2.1-1.5,4.2-2.1,6.4c-0.1,0.5-0.3,1-1.1,0.7C420.1,286.8,419.6,286.7,419.3,286.4z"/>
		<path class="st44" d="M420.5,286.9c0.4,0,0.6-0.1,0.7-0.6c0.7-3.3,2.2-6.3,3.1-9.5c0.5,0,1,0.3,1.4,0.5c0.6,0.8,0.1,1.7-0.2,2.4
			c-1.1,2.2-1.7,4.6-2.5,6.9c-0.1,0.4-0.2,0.8-0.6,1C421.7,287.5,421.1,287.2,420.5,286.9z"/>
		<path class="st35" d="M422.4,287.6c0.8-2.7,1.5-5.4,2.8-7.9c0.4-0.7,0.7-1.5,0.5-2.4c0.4,0.2,0.8,0.3,1.2,0.5
			c0.7,0.4,0.5,1,0.3,1.6c-1,2.5-1.7,5.1-2.6,7.6c-0.1,0.4-0.2,1.1-0.9,1.1C423.3,288,422.9,287.9,422.4,287.6z"/>
		<path class="st45" d="M419.1,274.9c-0.6,1.1-0.7,2.4-1.2,3.6c-0.8,1.9-1.4,3.9-2.1,5.8c-0.1,0.3-0.1,0.6-0.6,0.7
			c-0.4,0-0.8-0.2-1.2-0.4c-0.2-0.5,0.1-1,0.3-1.5c0.8-2.4,1.7-4.7,2.5-7.1c0.2-0.5,0.4-1.1,0.9-1.5
			C418.2,274.3,418.5,275,419.1,274.9z"/>
		<path class="st36" d="M423.8,288.1c1.1-2.2,1.6-4.5,2.4-6.8c0.2-0.7,0.6-1.4,0.8-2.1c0.1-0.5,0.2-0.9-0.1-1.4
			c0.7,0,1.2,0.5,1.9,0.7c-1.1,2.7-2,5.5-2.9,8.3c-0.2,0.6-0.5,1.2-0.7,1.8C424.8,288.5,424.3,288.4,423.8,288.1z"/>
		<path class="st46" d="M406.8,281.9c0.6-3,2.2-5.7,3-8.7c0.2-0.6,0.4-1.3-0.3-1.7c0.7,0.1,1.3,0.3,1.9,0.7c0.3,0.4,0.2,0.8,0.1,1.2
			c-0.9,2.8-2.1,5.4-2.8,8.2c-0.1,0.3-0.1,0.7-0.7,0.7C407.5,282.4,407.2,282.2,406.8,281.9z"/>
		<path class="st47" d="M403.4,278.5c0-0.5,0-1,0-1.5c0.4-1.1,0.7-2.2,1.2-3.3c0.5-1.2,1.4-2,2.7-2.3c-0.7,2.6-1.6,5.2-2.6,7.7
			c-0.1,0.4-0.3,0.7-0.7,0.7C403.7,279.5,403.6,279,403.4,278.5z"/>
		<path class="st48" d="M415,273.5c0.5,0,0.8,0.2,1.2,0.4c0.5,0.4,0.3,0.9,0.1,1.3c-1.1,2.4-1.6,5.1-2.7,7.5
			c-0.2,0.5-0.2,1.3-1.1,1.3c-0.5,0-0.9-0.2-1.2-0.5c0.6-2.4,1.7-4.6,2.4-7c0.2-0.7,0.5-1.3,0.6-2
			C414.5,274.1,414.5,273.7,415,273.5z"/>
		<path class="st49" d="M412.6,284c1-1,1.2-2.5,1.7-3.7c0.7-1.7,1-3.5,1.8-5.1c0.2-0.4,0.4-0.8,0.1-1.3c0.5,0.1,1,0.2,1.4,0.5
			c-0.9,2.4-1.7,4.9-2.6,7.3c-0.4,0.9-0.5,1.9-1,2.8C413.5,284.4,413,284.3,412.6,284z"/>
		<path class="st50" d="M415,273.5c-0.6,3.1-2,5.9-2.9,8.9c-0.1,0.4-0.3,0.9-0.7,1.2c-0.5-0.1-1-0.2-1.4-0.5c0.6-1.1,1-2.3,1.3-3.5
			c0.5-2,1.6-3.7,2.1-5.7c0.1-0.4,0.4-0.6,0.7-0.8C414.4,273,414.6,273.5,415,273.5z"/>
		<path class="st51" d="M408,282.3c0.9-1.9,1.3-4,2.1-6c0.6-1.3,1.1-2.7,1.3-4.2c0.3,0.1,0.7-0.1,0.9,0.3c0.5,0.1,0.7,0.4,0.5,0.9
			c-0.5,2.1-1.6,4-2.2,6c-0.2,0.8-0.4,1.5-0.7,2.3c-0.2,0.4-0.3,0.8-0.7,1.1C408.7,282.8,408.4,282.6,408,282.3z"/>
		<path class="st52" d="M409.2,282.8c0.9-2.4,1.3-4.9,2.6-7.1c0.5-0.8,0.2-1.9,0.9-2.7c0.2-0.2-0.3-0.3-0.4-0.5
			c0.6,0.2,1.1,0.4,1.7,0.5c-1.1,3-2.2,6.1-3.3,9.1c-0.2,0.4-0.2,0.9-0.8,0.9C409.7,283.1,409.4,283,409.2,282.8z"/>
	</g>
	<g>
		<path class="st53" d="M95.8,281.9c-0.3,0.4-0.8,0.6-1.3,0.7c-0.2,0.1-0.4,0.1-0.5,0c-1.1-3-2.3-5.9-3.1-9c-0.1-0.3-0.2-0.7,0.1-1
			c0.2-0.1,0.3-0.2,0.5-0.3c0.2,0,0.5,0,0.7,0c0.8,1.1,1.1,2.4,1.6,3.7C94.5,277.9,95.1,279.9,95.8,281.9z"/>
		<path class="st54" d="M97.4,279.2c-0.5,0.5-0.3,1.4-0.9,1.9c-0.6,0-0.6-0.4-0.7-0.8c-0.5-2.2-1.4-4.4-2.2-6.5
			c-0.2-0.6-0.3-1.1,0.5-1.3c1.4,0.2,2,1.2,2.5,2.3c0.6,1.2,0.8,2.6,1,3.9C97.4,278.9,97.4,279.1,97.4,279.2z"/>
		<path class="st55" d="M94.1,272.7c-0.8,0.2-0.4,0.6-0.3,1.1c0.8,2.1,1.7,4.2,2.2,6.4c0.1,0.4,0.2,0.7,0.5,0.9
			c-0.1,0.3-0.4,0.6-0.7,0.7c-0.3-0.1-0.4-0.3-0.5-0.6c-1-3-2.1-6-3.1-9c0.4,0,0.8,0,1.2,0C93.5,272.6,94.1,272.1,94.1,272.7z"/>
		<path class="st3" d="M94.1,272.7c-0.1-0.3-0.6-0.1-0.7-0.5c1.3,0,2.7,0,4,0c0,1.4,0,2.7,0,4.1c0,0.8,0,1.6,0,2.4
			c-0.4-1.2-0.8-2.4-1.2-3.6C95.8,274,95.2,273.1,94.1,272.7z"/>
		<path class="st56" d="M6.1,312.3c0,0.1,0,0.1,0,0.2c-0.6,0-1.3,0-1.9,0c0-0.1,0-0.1,0-0.2C4.7,311.8,5.4,311.8,6.1,312.3z"/>
		<path class="st0" d="M6.1,312.3c-0.7,0-1.3,0-2,0c-1-0.1-1.6-0.6-1.7-1.6c-0.1-0.9-1-1.5-0.9-2.5c-0.3-0.3-0.2-0.9-0.5-1.2
			c-0.1-0.3-0.1-0.5-0.2-0.8c-0.7-2.2-0.1-3.4,2.1-4.2c2-0.7,4-1.3,6-2c13.9-4.7,27.8-9.3,41.6-14c0.1,0,0.2-0.1,0.3-0.1
			c0.8,1,1.3,2.2,1.6,3.4c0.3,1.4,0.9,2.7,1.2,4.1c0.2,1,0.9,1.7,1.6,2.3c-3.2,1.1-6.3,2.2-9.5,3.3C33,303.4,20.2,307.7,7.3,312
			C6.9,312.1,6.5,312.2,6.1,312.3z"/>
		<path class="st5" d="M55.3,295.8c-1.4,0-1.6-1.2-1.9-2.1c-0.8-2.2-1.1-4.6-2.2-6.7c-0.2-0.3-0.2-0.7-0.3-1c2.9-1,5.7-2,8.6-2.9
			c1.3,2.6,2,5.4,3,8.2c0.3,0.8,0.6,1.3,1.6,1.1c0.2,0,0.4,0.1,0.5,0.2C61.5,293.8,58.4,294.9,55.3,295.8z"/>
		<path class="st8" d="M64.6,292.7c-1.9,0-1.9,0.1-2.6-1.8c-0.8-2.4-1.4-4.9-2.6-7.1c-0.1-0.3,0-0.5,0.1-0.7c1-0.3,1.9-0.6,2.9-1
			c0.9,0.9,0.7,2.2,1.2,3.3c0.7,1.4,1.1,2.9,1.6,4.4c0.3,0.9,0.8,1.6,1.6,2.1C66.1,292.3,65.3,292.5,64.6,292.7z"/>
		<path class="st17" d="M80.9,287.2c-0.7,0.4-1.4,0.6-2.2,0.7c-2.7,0.8-2.4,0.9-3.2-1.7c-0.7-2.1-1.5-4.1-2.1-6.3
			c-0.1-0.5-0.4-1-0.1-1.5c0.7-0.2,1.4-0.5,2.2-0.7c0.7,0.8,0.7,1.8,1.1,2.7c0.8,2.1,1.4,4.2,2.2,6.3c0.1,0.4,0.2,0.5,0.6,0.4
			c0.4-0.1,0.8-0.2,1.2-0.1C80.7,287,80.8,287,80.9,287.2z"/>
		<path class="st57" d="M66.7,291.9c-1.1,0.2-1.4-0.6-1.6-1.4c-0.8-2.8-2.3-5.5-2.7-8.5c0.7-0.3,1.4-0.6,2.2-0.7
			c0.5,0.5,0.7,1.2,0.8,1.9c0.3,2.4,1.6,4.4,2.2,6.6c0.2,0.7,0.9,0.9,1.4,1.2C68.2,291.6,67.5,291.7,66.7,291.9z"/>
		<path class="st58" d="M73.4,278.4c0.6,3,2,5.9,2.8,8.9c0.2,0.7,0.6,1.1,1.5,0.8c0.4-0.1,0.7-0.3,1.2-0.2c-0.9,0.5-1.9,0.7-2.9,1
			c-0.2,0.1-0.5,0-0.7,0.1c-0.9,0.5-1.2-0.1-1.3-0.7c-0.5-1.8-1.1-3.5-1.7-5.2c-0.3-0.9-0.6-1.8-1-2.7c-0.2-0.3-0.5-0.7-0.2-1.1
			C71.8,279,72.6,278.7,73.4,278.4z"/>
		<path class="st32" d="M80.9,287.2c-0.1,0-0.2,0-0.3,0c-0.1-0.1-0.2-0.2-0.3-0.4c-0.9-2.8-2.2-5.4-2.9-8.3c-0.1-0.4-0.3-0.9,0-1.4
			c0.6-0.2,1.3-0.5,1.9-0.7c0.2,0.2,0.4,0.4,0.5,0.7c0.9,3,2.2,5.8,3.1,8.8c0.1,0.2,0.1,0.4,0,0.6C82.4,286.8,81.7,287.1,80.9,287.2
			z"/>
		<path class="st44" d="M77.5,277.1c0.6,2.2,1.1,4.5,2.2,6.6c0.5,1,0.9,2.2,1,3.4c-0.4,0.1-0.9,0.1-1.3,0.3c-0.4,0.1-0.6,0-0.8-0.4
			c-1-2.9-2-5.7-2.9-8.5c-0.1-0.2-0.1-0.5-0.1-0.7C76.2,277.5,76.9,277.3,77.5,277.1z"/>
		<path class="st59" d="M71,279.2c1.4,2.9,2.3,5.9,3.1,8.9c0.3,1.3,1.2,0.4,1.8,0.7c-0.6,0.4-1.3,0.5-2,0.7
			c-1.5,0.3-1.4,0.3-1.9-1.1c-0.9-2.5-1.6-5.1-2.6-7.6c-0.2-0.4-0.3-0.8,0.2-1.1C70.1,279.6,70.5,279.4,71,279.2z"/>
		<path class="st12" d="M83.1,286.4c-0.7-1-0.9-2.1-1.3-3.3c-0.7-2.3-1.9-4.4-2.3-6.8c0.6-0.2,1.3-0.4,1.9-0.6
			c0.8,1.2,1.1,2.6,1.6,4c0.5,1.5,0.9,3,1.5,4.4c0.2,0.4,0.4,0.9,0.2,1.4c-0.3,0.6-1,0.4-1.4,0.8l-0.1,0L83.1,286.4z"/>
		<path class="st60" d="M69.8,290.9c-0.2,0-0.3,0.1-0.5,0.1c-0.4-0.2-0.6-0.7-0.7-1.1c-0.5-2.7-2-5.1-2.6-7.8
			c-0.1-0.4-0.4-0.8-0.1-1.2c0.7-0.3,1.4-0.6,2.2-0.7c0.8,3,2.1,5.9,2.8,8.9c0.1,0.5,0.5,0.8,0.8,1.2c-0.2,0.2-0.5,0.2-0.7,0.2
			C70.6,290.6,70.2,290.6,69.8,290.9z"/>
		<path class="st61" d="M71.8,290.2c-0.6,0.1-0.9-0.3-1.1-0.9c-0.7-2.8-1.7-5.4-2.6-8.1c-0.1-0.4-0.2-0.8,0.1-1.1
			c0.5-0.2,1-0.3,1.4-0.5c-0.2,0.3-0.2,0.6,0,0.9c1.2,2.5,1.9,5.2,2.7,7.8c0.3,1,0.7,1.3,1.6,1.1C73.2,289.9,72.5,290.1,71.8,290.2z
			"/>
		<path class="st62" d="M66,280.9c0.7,2,1.2,4.1,2.1,6c0.6,1.3,0.7,2.8,1.3,4.1c-0.2,0.1-0.3,0.1-0.5,0.2c-1.4,0.2-1.7-0.9-1.9-1.8
			c-0.1-0.6-0.3-1.2-0.6-1.8c-0.8-1.3-1-2.8-1.3-4.3c-0.1-0.7-0.6-1.2-0.5-1.9C65,281.2,65.5,281.1,66,280.9z"/>
		<path class="st63" d="M84.5,285.7c-0.8-2.5-1.6-5-2.5-7.5c-0.3-0.8-0.6-1.5-0.7-2.4c0.5-0.2,1-0.3,1.4-0.5c0.5,0.4,0.6,1,0.8,1.6
			c0.8,2.5,1.8,4.8,2.6,7.2c0.2,0.7,0.9,0.5,1.3,0.9c-0.7,0.4-1.4,0.6-2.2,0.7C85,285.8,84.7,285.9,84.5,285.7z"/>
		<path class="st45" d="M87.4,285c-1,0.3-1.3-0.1-1.7-1.2c-0.8-2.5-1.8-4.9-2.7-7.4c-0.1-0.4-0.3-0.7-0.3-1.1c0.5-0.2,1-0.3,1.4-0.5
			c0.5,0.2,0.5,0.7,0.7,1.1c0.9,2.3,1.6,4.7,2.4,7.1c0.3,0.8,0.6,1.3,1.6,1.1c0.2,0,0.4,0.1,0.5,0.2C88.8,284.7,88.1,284.9,87.4,285
			z"/>
		<path class="st52" d="M94.1,282.6c0.2,0,0.3,0,0.5,0c-0.7,0.4-1.4,0.6-2.1,0.7c-0.3,0.2-0.6,0.1-0.9,0.2c-0.4-0.1-0.5-0.4-0.6-0.7
			c-0.9-2.9-2.1-5.6-3-8.5c-0.1-0.2-0.1-0.5,0-0.7c0.5-0.3,1.1-0.5,1.7-0.6c0.8,1.3,0.9,2.8,1.5,4.1c0.5,1.2,1,2.3,1.3,3.6
			C92.5,281.7,92.9,282.5,94.1,282.6z"/>
		<path class="st14" d="M94.1,282.6c-1.2,0.4-1.6,0-1.9-1.2c-0.7-2.4-1.6-4.8-2.4-7.2c-0.1-0.4-0.2-0.8-0.2-1.2
			c0.5-0.2,1-0.3,1.4-0.5c0.4,2.6,1.6,4.9,2.4,7.4C93.6,280.8,94.1,281.6,94.1,282.6z"/>
		<path class="st64" d="M88.8,284.2c-0.7,0.4-1.2,0.3-1.5-0.6c-1-3-2-5.9-3.1-8.9c0.5-0.2,1-0.3,1.4-0.5c0.2,0.1,0.3,0.3,0.4,0.4
			c1,2.8,1.8,5.6,2.9,8.4C89.1,283.5,89.1,283.9,88.8,284.2z"/>
		<path class="st65" d="M88.8,284.2c0-0.6-0.1-1.1-0.3-1.6c-1.2-2.7-1.9-5.5-2.8-8.3c0.4-0.1,0.8-0.2,1.2-0.4c0.7,0.7,0.8,1.7,1,2.5
			c0.8,2.3,1.7,4.6,2.5,7c0,0.2-0.1,0.4-0.2,0.5c-0.3,0-0.6,0.1-0.9,0.3C89.1,284.3,89,284.3,88.8,284.2z"/>
		<path class="st50" d="M90.2,283.5c-1.3-3.1-2.5-6.3-3.4-9.6c0.3-0.1,0.6-0.2,0.9-0.3c1.1,2.9,2.1,5.7,3.2,8.6
			c0.1,0.4,0.1,0.8,0.5,1.1C91.1,283.9,90.7,283.8,90.2,283.5z"/>
		<path class="st66" d="M1,307c0.6,0.2,0.4,0.8,0.5,1.2C0.9,308,1,307.5,1,307z"/>
		<path class="st64" d="M90.2,283.5c0.4-0.1,0.9,0.2,1.2-0.2c0.3,0,0.6,0,1,0c-0.7,0.4-1.4,0.6-2.2,0.7
			C90.2,283.8,90.2,283.7,90.2,283.5z"/>
		<path class="st32" d="M84.5,285.7c0.3,0,0.5,0,0.8,0c-0.6,0.3-1.3,0.6-2,0.7C83.4,285.7,84.1,286,84.5,285.7z"/>
		<path class="st62" d="M69.8,290.9c0.3-0.5,0.8-0.4,1.2-0.4C70.7,290.8,70.3,290.8,69.8,290.9z"/>
	</g>
	<g>
		<path class="st39" d="M244.8,393.7c0-0.2,0-0.3,0-0.5c0.3-0.6,0.1-1.6,1.2-1.6c2.6,0.3,5.1,0.3,7.7,0c0.4,0,0.7,0,1.1,0
			c0.9,0.2,0.9,1,0.9,1.7c-0.1,0.1-0.2,0.2-0.3,0.3c-2.4,0.3-4.8,0.7-7.3,0.4c-1-0.1-1.9,0.2-2.8,0
			C245,394.1,244.9,393.9,244.8,393.7z"/>
		<path class="st23" d="M255,392c-2.3,0.3-4.7,0.3-7,0.3c-0.8,0-1.5-0.1-2.2-0.5c-0.1-0.9,0.6-1.1,1.2-1.4c0.4-0.2,0.8-0.1,1.2-0.3
			c0.2,0,0.3,0,0.5,0c1.1,0.2,2.2,0.2,3.4,0c0.1,0,0.2,0,0.2,0c0.6,0.2,1.3,0.1,1.9,0.5C254.6,391,255.2,391.2,255,392z"/>
		<path class="st67" d="M255.8,435.2c0,17.6,0,35.2,0,52.8c-0.2,0.1-0.3,0-0.4-0.1c-0.3-0.5-0.3-1.1-0.3-1.6c0-15.8,0-31.7,0-47.5
			c0-0.3,0-0.6,0.1-1c0-0.8-0.2-1.7,0.2-2.5C255.5,435.2,255.7,435.1,255.8,435.2z"/>
		<path class="st68" d="M244.8,488.5c0-16.1,0-32.2,0-48.2c0.2-0.1,0.3,0,0.4,0.1c0.3,0.5,0.3,1.2,0.3,1.8c0,14.8,0,29.6,0,44.5
			c0,0.6,0,1.2-0.3,1.8C245.1,488.5,245,488.5,244.8,488.5z"/>
		<path class="st69" d="M255.6,488c0.1,0,0.1,0,0.2,0c0,1,0,2.1,0,3.1c0,0.4-0.1,0.5-0.5,0.5c-1,0-2.1,0-3.1,0
			c-0.1-0.1-0.1-0.1-0.1-0.2c0-0.1,0-0.1,0-0.1C253.8,490.7,254.7,489.4,255.6,488z"/>
		<path class="st69" d="M255,392c-0.5-1.2-1.7-1.4-2.7-1.9c1,0,2.1,0,3.1,0c0.4,0,0.5,0.1,0.5,0.5c0,1,0,1.9,0,2.9
			c-0.1,0.1-0.1,0.1-0.2,0C255.2,393,255.5,392.3,255,392z"/>
		<path class="st2" d="M244.8,488.5c0.1,0,0.1,0,0.2,0c0.9,1.2,2,2.2,3.4,2.8c0.1,0.1,0.1,0.2,0,0.3c-1,0-2.1,0-3.1,0
			c-0.4,0-0.5-0.1-0.5-0.5C244.8,490.2,244.8,489.3,244.8,488.5z"/>
		<path class="st70" d="M248.2,390.1c-0.8,0.6-1.9,0.7-2.4,1.7c-0.3,0.5-0.6,1-1,1.4c0-1,0-2.1,0-3.1
			C245.9,390.1,247,390.1,248.2,390.1z"/>
		<path class="st71" d="M245,440.3c-0.1,0-0.1,0-0.2,0c0-4.2,0-8.3,0-12.5c0.2-0.1,0.3,0,0.4,0.1c0.3,0.5,0.2,1,0.2,1.5
			c0.1,2.8,0.1,5.6,0,8.4C245.4,438.7,245.7,439.6,245,440.3z"/>
		<path class="st72" d="M255.8,435.2c-0.1,0-0.1,0-0.2,0c-0.4-0.3-0.4-0.7-0.4-1.2c0-1.6-0.1-3.1,0-4.7c0-0.9-0.1-1.7,0-2.6
			c0-0.6-0.1-1.3,0.1-1.9c0-0.1,0.1-0.3,0.2-0.4c0.1-0.1,0.2-0.1,0.4-0.1C255.8,428,255.8,431.6,255.8,435.2z"/>
		<path class="st73" d="M255.6,393.5c0.1,0,0.1,0,0.2,0c0,2.4,0,4.8,0,7.2c-0.1,0.1-0.2,0.1-0.4,0c-0.2-0.2-0.2-0.5-0.2-0.8
			c-0.1-0.5,0-0.9,0-1.4c-0.1-0.5,0-1.1,0-1.6c-0.1-0.6,0-1.1,0-1.7C255.2,394.5,255.2,393.9,255.6,393.5L255.6,393.5z"/>
		<path class="st74" d="M255.8,424.4c-0.1,0-0.1,0-0.2,0c-0.4-0.3-0.4-0.8-0.4-1.2c-0.1-0.6-0.1-1.3,0-1.9c-0.1-0.7-0.1-1.4,0-2.1
			c0-0.5-0.1-1,0.2-1.4c0.1-0.1,0.2-0.2,0.4-0.1C255.8,419.9,255.8,422.2,255.8,424.4z"/>
		<path class="st75" d="M244.8,422.5c0-2.2,0-4.5,0-6.7c0.1-0.1,0.3-0.1,0.4,0.1c0.3,0.4,0.2,0.8,0.2,1.2c0.1,0.8,0.1,1.7,0,2.5
			c0,0.7,0.1,1.4,0,2.1c0,0.3,0,0.6-0.2,0.8C245.1,422.5,245,422.6,244.8,422.5z"/>
		<path class="st76" d="M255.8,417.7c-0.1,0-0.1,0-0.2,0c-0.3-0.2-0.4-0.6-0.4-1c-0.1-0.7-0.1-1.4,0-2.1c0-0.7-0.1-1.4,0-2.1
			c0-0.4,0-0.8,0.2-1.2c0.1-0.1,0.2-0.1,0.4-0.1C255.8,413.4,255.8,415.5,255.8,417.7z"/>
		<path class="st77" d="M255.8,411.2c-0.1,0-0.1,0-0.2,0c-0.1-0.1-0.2-0.2-0.3-0.3c-0.1-0.3-0.1-0.7-0.1-1c-0.1-0.6,0-1.2,0-1.8
			c0-0.6-0.1-1.2,0-1.8c0-0.2,0.1-0.4,0.2-0.6c0.1-0.1,0.2-0.1,0.4-0.1C255.8,407.5,255.8,409.4,255.8,411.2z"/>
		<path class="st78" d="M244.8,411.4c0-1.8,0-3.7,0-5.5c0.1-0.1,0.3-0.1,0.4,0.1c0.1,0.2,0.2,0.4,0.2,0.6c0.1,0.7,0.1,1.3,0,2
			c0,0.5,0,1,0,1.5c0,0.4,0,0.7-0.1,1.1c0,0.1-0.1,0.2-0.2,0.3C245,411.5,244.9,411.5,244.8,411.4z"/>
		<path class="st79" d="M244.8,422.5c0.1,0,0.2,0,0.2,0c0.3,0.2,0.4,0.6,0.4,1c0.1,0.5,0.1,1,0,1.5c0.1,0.6,0.1,1.1,0,1.7
			c0,0.4,0,0.9-0.4,1.2c-0.1,0-0.2,0-0.2,0C244.8,426,244.8,424.2,244.8,422.5z"/>
		<path class="st80" d="M255.8,405.7c-0.1,0-0.1,0-0.2,0c-0.3-0.2-0.4-0.5-0.4-0.9c0-0.3,0-0.5,0-0.8c0-0.2,0-0.4,0-0.6
			c0-0.4,0-0.8,0-1.1c0-0.3,0-0.7,0-1c0-0.3,0.1-0.5,0.4-0.7c0.1,0,0.1,0,0.2,0C255.8,402.3,255.8,404,255.8,405.7z"/>
		<path class="st81" d="M245,405.9c-0.1,0-0.2,0-0.2,0c0-1.5,0-3,0-4.6c0.1-0.1,0.2-0.1,0.3,0c0.1,0.1,0.1,0.2,0.2,0.3
			c0.1,0.4,0.1,0.7,0.1,1.1c0,0.2,0,0.5,0,0.7c0,0.2,0,0.5,0,0.7c0,0.3,0,0.5,0,0.8C245.4,405.4,245.3,405.7,245,405.9z"/>
		<path class="st82" d="M244.8,393.7c0.1,0.1,0.2,0.2,0.3,0.2c0.4,0.5,0.4,1,0.3,1.6c0,0.5,0.1,1.1,0,1.6c0,0.3-0.1,0.5-0.2,0.8
			c-0.1,0.1-0.2,0.1-0.4,0.1C244.8,396.6,244.8,395.1,244.8,393.7z"/>
		<path class="st83" d="M244.8,411.4c0.1,0,0.2,0,0.2,0c0.4,0.3,0.4,0.8,0.4,1.2c0.1,0.7,0.1,1.4,0,2.1c0,0.4,0,0.7-0.4,1
			c-0.1,0-0.2,0-0.2,0C244.8,414.3,244.8,412.9,244.8,411.4z"/>
		<path class="st68" d="M248.4,491.6c0-0.1,0-0.1,0-0.2c1.3-0.7,2.6-0.7,3.9,0c0,0.1,0,0.1,0,0.2C251,491.6,249.7,491.6,248.4,491.6
			z"/>
		<path class="st84" d="M252,390.1c-1.1,0.4-2.2,0.4-3.4,0C249.8,390.1,250.9,390.1,252,390.1z"/>
		<path class="st85" d="M244.8,398c0.1,0,0.1,0,0.2,0c0.3,0.2,0.3,0.4,0.4,0.7c0.1,0.5,0.1,1,0,1.5c0,0.4,0,0.9-0.4,1.2
			c-0.1,0-0.2,0-0.2,0C244.8,400.3,244.8,399.1,244.8,398z"/>
		<path class="st37" d="M245.1,395.6c0-0.6,0-1.1,0-1.7c3.5-0.2,7-0.3,10.4-0.5c0,0.6,0,1.1,0,1.7c-0.2,0.5-0.7,0.6-1.2,0.6
			c-2.9,0.1-5.8,0-8.6,0.1C245.5,395.9,245.3,395.8,245.1,395.6z"/>
		<path class="st0" d="M252.2,491.4c-1.3,0-2.6,0-3.9,0c-1.7-0.3-2.8-1.3-3.4-2.9c0-16.1,0-32.1,0-48.2c0-0.8,0-1.6,0-2.4
			c0.3-0.3,0.7-0.4,1.1-0.4c2.7,0,5.3-0.4,8-0.3c0.5,0,1,0,1.4,0.4c0,11.4,0,22.8,0,34.1c0,5.4,0,10.9,0,16.3
			C255.3,489.9,254.1,491,252.2,491.4z"/>
		<path class="st5" d="M255.6,437.6c-3.5-0.2-7,0.3-10.5,0.2c0-2.9,0-5.8,0-8.6c0.3-0.3,0.7-0.3,1.1-0.3c2.2,0.1,4.3,0.1,6.5-0.1
			c1-0.1,2-0.3,2.9,0.4c0,2,0,4,0.1,6C255.6,436,255.6,436.8,255.6,437.6z"/>
		<path class="st86" d="M255.6,429.2c-2.2-0.2-4.4,0.3-6.6,0.3c-1.3-0.1-2.6,0-3.9-0.3c0-0.5,0-1,0-1.4c0-0.4,0-0.8,0-1.2
			c0.5-0.5,1.1-0.4,1.7-0.4c2.2-0.1,4.5,0.1,6.7-0.2c0.7-0.1,1.5,0,2.1,0.6C255.6,427.4,255.6,428.3,255.6,429.2z"/>
		<path class="st87" d="M255.6,426.6c-2.2-0.6-4.4,0.2-6.6,0c-1.3-0.1-2.6,0-3.9,0c0-0.6,0-1.1,0-1.7c0.6-0.6,1.4-0.6,2.1-0.7
			c2.3-0.1,4.7,0,7,0c0.5,0,1,0,1.3,0.4C255.6,425.3,255.6,425.9,255.6,426.6z"/>
		<path class="st9" d="M255.6,424.6c-3.5,0.1-7-0.2-10.5,0.2c0-0.5,0-1,0-1.4c0.9-0.7,2.1-0.5,3.1-0.6c2.1-0.2,4.2,0.2,6.3,0
			c0.4,0,0.8,0.1,1.1,0.4c0,0.4,0,0.8,0.1,1.2C255.6,424.5,255.6,424.6,255.6,424.6z"/>
		<path class="st14" d="M245.1,395.6c3-0.5,6-0.1,9-0.2c0.5,0,1,0.1,1.5-0.2c0,0.6,0,1.1,0,1.7c-1,0.7-2.2,0.7-3.3,0.6
			c-2-0.2-4,0.1-5.9,0.1c-0.4,0-0.9,0.1-1.2-0.3C245.1,396.7,245.1,396.2,245.1,395.6z"/>
		<path class="st16" d="M245.1,397.3c3.5-0.6,7-0.1,10.5-0.5c0,0.6,0,1.1,0,1.7c-0.4,0.5-1,0.4-1.6,0.4c-2.4,0.1-4.8-0.1-7.2,0.2
			c-0.6,0.1-1.2,0.1-1.7-0.4c0-0.2,0-0.5,0-0.7C245.1,397.8,245.1,397.5,245.1,397.3z"/>
		<path class="st20" d="M245,401.4c0-0.4,0-0.8,0-1.2c0.5-0.5,1.1-0.6,1.6-0.6c2.3-0.1,4.5,0,6.8-0.2c0.7,0,1.5,0,2,0.5
			c0,0.2,0,0.5,0.1,0.7c0,0.2,0,0.5-0.1,0.7c-0.3,0.4-0.8,0.3-1.2,0.4c-2.4,0.1-4.8,0-7.2,0.3c-0.7,0.1-1.4,0.2-2-0.4
			C245.1,401.5,245.1,401.5,245,401.4z"/>
		<path class="st50" d="M255.6,399.9c-3.5-0.1-7-0.1-10.5,0.2c0-0.5,0-1,0-1.4c3.5-0.3,7-0.2,10.5-0.2
			C255.6,399,255.6,399.5,255.6,399.9z"/>
		<path class="st30" d="M255.6,416.7c0,0.3,0,0.6,0.1,1c0,0.5,0,1-0.1,1.4c-1.9,0.8-3.8,1-5.8,0.8c-1.1-0.1-2.2-0.2-3.3,0
			c-0.5,0.1-1,0-1.3-0.3c0-0.9,0-1.8,0-2.6c1-0.6,2.1-0.2,3.1-0.4c2.2-0.2,4.4,0,6.6-0.2C255.1,416.4,255.3,416.5,255.6,416.7z"/>
		<path class="st60" d="M245.1,419.6c3.5-0.2,7,0.1,10.5-0.5c0,0.7,0,1.4,0,2.2c-0.6,0.6-1.4,0.6-2.1,0.6c-2.4,0.1-4.9-0.2-7.3,0.2
			c-0.4,0.1-0.8,0-1.1-0.4C245.1,421,245.1,420.3,245.1,419.6z"/>
		<path class="st62" d="M245.1,421.8c3.5-0.6,7,0,10.5-0.5c0,0.6,0,1.3,0,1.9c-3.5,0.2-7-0.1-10.5,0.2c0-0.3,0-0.6,0-1
			C245.1,422.2,245.1,422,245.1,421.8z"/>
		<path class="st33" d="M255.6,416.7c-3.5,0.4-7,0.3-10.5,0.2c0-0.4,0-0.8,0-1.2c0-0.3,0-0.6,0-1c0.9-0.7,2.1-0.6,3.1-0.6
			c1.7-0.1,3.4-0.1,5.1-0.2c0.8-0.1,1.7-0.2,2.3,0.6C255.6,415.3,255.6,416,255.6,416.7z"/>
		<path class="st88" d="M255.6,414.6c-1.1-0.3-2.3-0.3-3.4-0.1c-0.4,0.1-0.9,0.1-1.3,0.1c-1.9-0.1-3.9,0.3-5.8,0.2
			c0-0.7,0-1.4,0-2.2c0.3-0.3,0.7-0.4,1.1-0.4c2.7,0.1,5.3-0.4,8-0.3c0.5,0,1,0,1.4,0.4C255.6,413.1,255.6,413.8,255.6,414.6z"/>
		<path class="st22" d="M255.6,412.4c-3.5-0.2-7,0.4-10.5,0.2c0-0.4,0-0.8,0-1.2c0,0,0,0,0,0c0.7-0.6,1.6-0.3,2.4-0.5
			c2.4-0.6,4.8,0.1,7.2-0.3c0.3,0,0.6,0.1,0.9,0.3c0,0.1,0,0.2,0.1,0.2C255.6,411.6,255.6,412,255.6,412.4z"/>
		<path class="st42" d="M245.1,408.6c0-0.7,0-1.4,0-2.2c0.7-0.6,1.5-0.5,2.3-0.5c2.1,0.1,4.2,0.1,6.3-0.2c0.7-0.1,1.4-0.1,1.9,0.4
			c0,0.6,0,1.3,0,1.9c-1.5,0.9-3.2,0.9-4.9,0.8c-1.2,0-2.5-0.1-3.7,0C246.3,409,245.6,409.1,245.1,408.6z"/>
		<path class="st89" d="M245.1,408.6c3.5-0.3,7,0.1,10.5-0.5c0,0.6,0,1.3,0,1.9c-0.6,0.6-1.5,0.7-2.2,0.6c-2.2-0.3-4.4,0.1-6.7,0.1
			c-0.6,0-1.1,0-1.6-0.4C245.1,409.7,245.1,409.1,245.1,408.6z"/>
		<path class="st43" d="M255.6,406.2c-3.5,0.2-7,0.2-10.5,0.2c0-0.2,0-0.3,0-0.5c0-0.3,0-0.6,0-1c0.3-0.4,0.8-0.4,1.2-0.4
			c2.7,0,5.5,0.1,8.2-0.2c0.4,0,0.8,0,1.1,0.3c0,0.3,0,0.6,0.1,1C255.6,405.9,255.6,406,255.6,406.2z"/>
		<path class="st44" d="M245.1,410.2c3.5-0.1,7-0.2,10.5-0.2c0,0.3,0,0.6,0,1c-3.5,0.2-7,0.1-10.5,0.5
			C245.1,411.1,245.1,410.6,245.1,410.2z"/>
		<path class="st90" d="M245.1,401.6c2.9-0.1,5.7-0.2,8.6-0.3c0.6,0,1.2,0.1,1.9,0.1c0,0.3,0,0.6,0,1c-0.3,0.3-0.7,0.4-1.1,0.4
			c-2.4,0-4.8,0.3-7.2,0.5c-0.7,0-1.5,0.1-2.2-0.4C245.1,402.4,245.1,402,245.1,401.6z"/>
		<path class="st91" d="M245.1,402.8c3.5,0.1,7-0.6,10.5-0.5c0,0.4,0,0.8,0,1.2c-0.3,0.3-0.6,0.4-1,0.3c-2.5-0.1-5,0.4-7.5,0.3
			c-0.7,0-1.4-0.1-2-0.6C245.1,403.3,245.1,403.1,245.1,402.8z"/>
		<path class="st10" d="M255.6,404.7c-2.5,0.5-5,0.1-7.4,0.4c-1,0.1-2-0.2-3.1-0.1c0-0.2,0-0.5,0-0.7c0.2-0.2,0.4-0.3,0.6-0.3
			c2.9,0.2,5.9-0.1,8.8-0.2c0.4,0,0.7,0,1,0.2C255.6,404.3,255.6,404.5,255.6,404.7z"/>
		<path class="st10" d="M255.6,404c-3.5,0.2-7,0.3-10.5,0.2c0-0.2,0-0.5,0-0.7c3.5,0.7,7-0.2,10.5,0
			C255.6,403.7,255.6,403.9,255.6,404z"/>
	</g>
	<g>
		<g>
			<path class="st49" d="M60.7,171c-1.7-0.6-3.3-1.1-5-1.7c0-0.4,0-0.7,0-1.1c0.5-1.3,1-2.6,1.5-3.9c6.9-4.4,13.5-9.3,20.2-14
				c0.5-0.3,1-0.7,1.5-1c4.5-0.6,9-1.1,13.5-1.7c0.1,1-0.8,1.4-1.4,1.9c-5.3,3.8-10.7,7.5-16.1,11.3C70.1,164.3,65.2,167.4,60.7,171
				z"/>
			<path class="st45" d="M224,47.4c1.5-3.1,2.9-6.2,4.5-9.2c3.5-6.2,9-10,15.9-11.8c0.7-0.2,1.4-0.1,1.9-0.7c1.5,0,3.1,0,4.6,0
				c0.4,1.2,0.1,2.3,0.2,3.5c0,0.6-0.4,0.8-0.8,1.1c-8,5.4-15.9,11.1-23.8,16.6C225.8,47.3,225.1,48.1,224,47.4z"/>
			<path class="st92" d="M249.9,232.7c0-0.1,0-0.2,0-0.3c0.1-1.4,0.1-2.8,0.1-4.3c0-20.1,0-40.2,0-60.3c0-1.4,0-2.7,0-4.1
				c0-7-0.1-14,0-21c0-3.9-0.2-7.9,0.1-11.8c0.3-0.9,0.3-1.9,0.3-2.8c0-10.9,0.1-21.8-0.1-32.7c0-0.7,0-1.4,0-2.1
				c-0.1-3.8-0.1-7.6,0-11.4c-0.1-3.7-0.1-7.5,0-11.2c0-0.9-0.1-1.8,0.3-2.6c0.1-0.2,0.3-0.3,0.6-0.2c0,54.4,0,108.8,0,163.3
				C251.4,232.5,251.1,232.9,249.9,232.7z"/>
			<path class="st93" d="M251.3,68h-0.1h-0.1c-0.7-0.6-0.6-1.4-0.6-2.1c0-1.8-0.1-3.5,0-5.3c-0.1-2.8-0.1-5.7,0-8.5
				c-0.1-1.7-0.1-3.3,0-5c0-0.8,0-1.5,0-2.3c0-2.2-0.1-4.3,0-6.5c0-0.5,0-1.1,0.3-1.6c0.1-0.2,0.3-0.2,0.5-0.1
				C251.3,47.1,251.3,57.6,251.3,68z"/>
			<path class="st80" d="M251.3,36.7c-0.1,0-0.2,0-0.3,0c-1.1-2.4-0.9-4.7-0.1-7.1c0-1.3,0-2.6,0-3.9c0.7-0.1,0.3,0.5,0.3,0.7
				C251.3,29.8,251.3,33.3,251.3,36.7z"/>
			<path class="st53" d="M250.9,81.9c0,3.8,0,7.6,0,11.4c-4,3-8.1,5.8-12.2,8.7c-12.7,8.9-25.4,17.7-38,26.6
				c-9.4,6.7-19,13.2-28.4,19.8c-11,7.7-22,15.4-33,23.2c-7.8,5.5-15.6,10.9-23.4,16.4c-0.3,0.2-0.7,0.4-1.1,0.6
				c-3.7-1.2-7.3-2.4-11-3.6c-0.1-1.1,0.8-1.5,1.5-2c9.5-6.6,19-13.4,28.5-20c11.4-7.9,22.8-15.8,34-23.9c0.6-0.5,1.3-0.8,2.1-0.9
				c2.9-0.4,5.8-0.8,8.8-1.1c1-0.1,1.4-0.5,1.8-1.3c1.4-2.9,2.9-5.8,4.4-8.7c19.9-13.7,39.6-27.6,59.3-41.5c1.6-1.1,3.2-2.3,4.8-3.3
				C249.6,81.8,250.2,81.3,250.9,81.9z"/>
			<path class="st14" d="M250.9,81.9c-1.3,0-2.1,1-3.1,1.6c-7,4.8-13.9,9.8-20.8,14.7c-11.9,8.3-23.7,16.6-35.6,24.9
				c-1.5,1.1-3.1,2.1-4.6,3.2c-0.6,0.4-1.2,0.8-2,0.7c2.6-5.7,5.4-11.2,8.2-16.7c10.6-7.4,21.1-14.8,31.7-22.2
				c8.1-5.7,16.2-11.3,24.3-17c0.6-0.4,1.2-0.9,1.9-0.6C250.9,74.3,250.9,78.1,250.9,81.9z"/>
			<path class="st14" d="M169.9,138.2c-2.6,1.8-5.2,3.6-7.8,5.5c-6.3,4.4-12.6,8.9-19,13.3c-11.7,8.2-23.4,16.4-35.1,24.6
				c-1.5,1-3.2,1.8-4.3,3.4c-3.6-1.1-7.2-2.1-10.7-3.5c-0.4-1.3,0.8-1.6,1.5-2c3.7-2.5,7.3-5,10.9-7.6c12.8-8.9,25.5-17.8,38.3-26.8
				c2.1-1.5,4.1-3,6.2-4.4C156.6,139.8,163.2,139,169.9,138.2z"/>
			<path class="st94" d="M150,140.6c-0.5,1.6-2.1,2.1-3.2,2.9c-7.6,5.4-15.3,10.7-22.9,16c-9.7,6.8-19.3,13.7-29.2,20.3
				c-0.6,0.4-1.4,0.7-1.5,1.6c-3.4-0.9-6.7-2-10-3.2c-0.5-1.2,0.6-1.4,1.1-1.9c4.1-3,8.3-5.8,12.5-8.8c11.4-8,22.9-16,34.3-24
				c0.5-0.3,1-0.7,1.6-0.8C138.3,142.1,144.1,141.3,150,140.6z"/>
			<path class="st94" d="M250.9,70.5c-4,2.3-7.5,5.1-11.2,7.7c-5.2,3.5-10.3,7.2-15.5,10.9c-9.8,6.9-19.6,13.8-29.3,20.7
				c-0.5,0.4-1.1,0.7-1.8,0.6c2.5-5.3,5-10.5,7.7-15.7c9.1-6.1,17.9-12.5,26.8-18.7c7.1-4.9,14.2-9.9,21.2-14.9
				c0.6-0.4,1.2-1.1,2.1-0.6c0,2.5,0.1,5,0.1,7.5C251,68.8,251,69.7,250.9,70.5z"/>
			<path class="st95" d="M250.9,60.5c-2,0.6-3.4,2.1-5,3.2C233.5,72.3,221.3,81,209,89.6c-2.1,1.5-4.1,2.9-6.2,4.4
				c-0.6,0.4-1.2,0.8-2,0.7c1.9-4.2,4-8.4,6.1-12.4c0.9-1.2,2.3-1.8,3.5-2.6c10.3-7.5,20.9-14.5,31.2-21.9c2.4-1.7,4.9-3.4,7.2-5.1
				c0.6-0.4,1.2-1.1,2-0.6C250.9,54.8,250.9,57.7,250.9,60.5z"/>
			<path class="st95" d="M132.5,142.8c-4.5,3.8-9.4,6.8-14.2,10.2c-11.4,8.1-22.9,16.1-34.3,24.1c-0.4,0.3-0.9,0.5-0.9,1.2
				c-2.6-0.7-5.3-1.5-7.8-2.5c-1.1-1.3,0.3-1.7,0.9-2.1c2.1-1.6,4.3-3.1,6.5-4.6c11.1-7.7,22.1-15.5,33.2-23.2
				c0.8-0.5,1.5-1.1,2.5-1.2C123,143.9,127.8,143.4,132.5,142.8z"/>
			<path class="st96" d="M118.3,144.5c-3.3,2.3-6.6,4.5-9.8,6.8c-5.5,3.9-11,7.7-16.5,11.6c-5.1,3.6-10.3,7.1-15.4,10.8
				c-0.6,0.4-1.7,0.8-1.3,2c-2.6-0.8-5.2-1.7-7.8-2.5c-0.5-1,0.4-1.4,1-1.8c5.5-3.9,11-7.8,16.6-11.6c5.7-4,11.4-7.9,17-11.9
				c0.6-0.4,1.2-1,1.7-1.5C108.6,145.7,113.4,145.1,118.3,144.5z"/>
			<path class="st49" d="M250.9,29.6c0,2.4,0.1,4.8,0.1,7.1c0,0.5-0.1,0.9-0.1,1.4c-4.2,2.9-8.3,5.8-12.5,8.7
				c-6.1,4.3-12.1,8.6-18.3,12.8c-0.8,0.5-1.5,1.2-2.6,0.9c2.2-4.4,4.3-8.8,6.5-13.2c2.1,0,3.3-1.7,4.8-2.7
				c5.8-3.9,11.4-8,17.1-11.9C247.5,31.6,249,30.2,250.9,29.6z"/>
			<path class="st20" d="M103.7,146.3c-0.4,1.8-2,2.2-3.2,3.1c-10.6,7.5-21.3,15-32,22.5c-0.5,0.3-1,0.7-1,1.3
				c-2.3-0.7-4.5-1.4-6.8-2.2c0.3-1.4,1.6-1.9,2.6-2.5c8.6-6.1,17.3-12.1,25.9-18.2c1.1-0.8,2.3-1.4,3.1-2.6
				C96.1,147.3,99.9,146.8,103.7,146.3z"/>
			<path class="st48" d="M217.6,60.5c3.1-1.2,5.5-3.4,8.2-5.2c6.1-4.1,12.1-8.5,18.1-12.7c1.8-1.3,3.7-2.5,5.5-3.8
				c0.5-0.3,0.9-0.7,1.6-0.6c0,2.3,0,4.5,0,6.8c-11.8,8.3-23.5,16.6-35.3,24.8c-0.8,0.6-1.7,1.7-3,0.8
				C214.3,67.2,215.9,63.8,217.6,60.5z"/>
			<path class="st96" d="M250.9,52c-2.4,0.9-4.2,2.7-6.3,4.2c-7,4.8-13.8,9.7-20.8,14.4c-5,3.4-9.8,6.9-14.8,10.4
				c-0.7,0.5-1.4,0.8-2.1,1.2c1.1-2.9,2.5-5.5,4-8.2c7.7-5.1,15.1-10.5,22.6-15.7c5.2-3.6,10.4-7.3,15.5-10.9c0.6-0.4,1.1-1,1.9-0.4
				C250.9,48.7,250.9,50.3,250.9,52z"/>
			<path class="st96" d="M250.9,47c-2.4,0.7-4.1,2.5-6,3.8c-6.3,4.4-12.5,8.8-18.8,13.2c-4.3,3-8.6,6-12.8,9
				c-0.7,0.5-1.4,1.1-2.4,0.9c0.5-1.2,1-2.5,1.7-3.6c0.8,0.2,1.5-0.3,2.1-0.7c9.4-6.7,18.9-13.3,28.3-20c2.1-1.5,4.1-2.9,6.2-4.4
				c0.5-0.3,1-0.6,1.7-0.5C250.9,45.6,250.9,46.3,250.9,47z"/>
			<path class="st45" d="M78.8,149.5c-0.9,1.6-2.6,2.3-4,3.4c-5.1,3.7-10.3,7.2-15.5,10.8c-0.6,0.4-1.3,0.9-2.1,0.7
				C60.3,155.8,69.3,149.6,78.8,149.5z"/>
			<path class="st23" d="M250.7,131.1c0.2,3.9,0.1,7.7,0,11.6c-9.2,6.3-18.3,12.7-27.4,19.1c-13.4,9.4-26.9,18.8-40.3,28.2
				c-6.7,4.7-13.5,9.4-20.3,14c-7.7-2.5-15.4-5-23.1-7.5c-0.3-1.1,0.6-1.5,1.3-1.9c7.4-5.2,14.8-10.3,22.1-15.5
				c12.3-8.6,24.6-17.2,36.8-25.8c11.1-7.8,22.2-15.6,33.4-23.3c5.2-3.7,10.5-7.4,15.8-11c0.6-0.4,1.4-1.5,1.9,0.1
				C250.7,123.1,251,127.1,250.7,131.1z"/>
			<path class="st97" d="M250.6,163.7c0,9.8,0.1,19.5,0.1,29.3c0,8.5,0,17.1,0,25.6c0,4.1,0,8.2-0.1,12.3c0,0.5,0.4,1.4-0.6,1.5
				c-7.2-2.4-14.4-4.7-21.5-7.1c-13.8-4.5-27.6-8.9-41.3-13.3c-1-0.3-2.1-0.4-2.9-1.1c-1-1.1,0.2-1.4,0.7-1.8
				c2.9-2.1,5.9-4.2,8.8-6.3c16.4-11.4,32.7-22.8,49.1-34.3c2-1.4,3.9-2.8,6-4.1C249.3,164,249.8,163.4,250.6,163.7z"/>
			<path class="st98" d="M250.6,163.7c-4.8,2.9-9.2,6.3-13.8,9.5c-5.5,3.8-10.9,7.7-16.3,11.5c-11.9,8.3-23.8,16.7-35.8,25
				c-0.4,0.3-1,0.6-0.5,1.3c-7.2-2.2-14.3-4.4-21.4-6.9c0.8-1.5,2.3-2,3.5-2.9c9.7-6.9,19.6-13.6,29.3-20.4
				c11.9-8.3,23.8-16.6,35.7-25c5.7-4,11.5-8.1,17.2-12.1c0.7-0.5,1.3-1.1,2.2-1C250.8,149.7,250.9,156.7,250.6,163.7z"/>
			<path class="st39" d="M250.6,118.5c-2.8,1.4-5.2,3.4-7.7,5.2c-5.3,3.6-10.5,7.4-15.8,11.1c-12.7,8.9-25.4,17.8-38.1,26.7
				c-14.2,10-28.5,19.9-42.7,29.9c-2.3,1.6-4.9,2.8-6.7,5.1c-4.4-1.4-8.7-2.7-13.1-4.1c-0.7-1.1,0.2-1.5,0.8-2
				c3.2-2.5,6.6-4.8,10-7.1c15.2-10.6,30.4-21.3,45.6-31.9c14.3-10,28.6-20.1,42.9-30.1c7.1-5,14.3-10,21.4-14.9
				c0.7-0.5,1.4-1.1,2.3-1.4c0.6-0.3,1.3-0.5,1.3,0.6c0,3.7,0,7.4,0,11.2C250.8,117.4,251,118,250.6,118.5z"/>
			<path class="st13" d="M250.6,118.5c0-4.5,0-9,0-13.5c-0.7-0.9-0.3-1.9-0.4-2.9c-0.1-0.5,0.2-1.2-0.3-1.5s-1,0.3-1.4,0.5
				c-3.9,2.7-7.8,5.4-11.6,8.1c-8.8,6.2-17.6,12.4-26.5,18.6c-11.5,7.9-22.9,16.1-34.3,24.1c-10.9,7.6-21.7,15.2-32.6,22.8
				c-6.7,4.7-13.4,9.4-20.1,14.1c-0.7,0.5-1.4,1.1-1.9,1.9c-2.2-0.7-4.5-1.4-6.7-2.2c2-2.3,4.7-3.7,7.2-5.4
				c11.8-8.4,23.6-16.6,35.5-24.9c14.3-10,28.7-19.9,43-29.9c8-5.6,16-11.2,24-16.9c8.4-5.9,16.8-11.8,25.2-17.7
				c0.4-0.3,0.8-0.5,1.3-0.5c0,12.3,0,24.6,0,36.8c0,0.3-0.2,0.7-0.2,1C250.7,126.9,250.6,122.7,250.6,118.5z"/>
			<path class="st13" d="M121.5,190.7c-0.5-0.9,0.2-1.3,0.8-1.7c5.7-4,11.5-8.1,17.2-12.1c11.1-7.8,22.1-15.5,33.2-23.3
				c7.6-5.3,15.3-10.6,23-16c14.8-10.4,29.6-20.7,44.3-31.1c3-2.1,6-4.2,9-6.2c0.4-0.3,0.7-0.8,1.2-0.5s0.3,0.8,0.3,1.3
				c0,1.3,0,2.6,0,3.9c-2.7,1-4.8,3-7.1,4.6c-5.8,3.9-11.4,8-17.1,11.9c-7.9,5.4-15.7,11.1-23.6,16.6c-6.1,4.3-12.2,8.5-18.3,12.8
				c-11.4,8-22.8,16-34.2,24c-7.2,5.1-14.5,10.1-21.7,15.2c-0.8,0.6-2.2,0.9-2.1,2.4C124.8,191.8,123.1,191.5,121.5,190.7z"/>
		</g>
		<g>
			<path class="st99" d="M254.4,25.7c1.6,0.9,3.5,0.7,5,1.7c0.2,0.5,0.2,1,0.2,1.6c-0.1,66.2,0,132.4,0,198.6c0,0.7,0,1.3-0.2,1.9
				c-2.9,1.1-5.9,2.1-8.9,2.8c0-10.2,0-20.4,0-30.6c0.3-0.6,0.2-1.3,0.2-1.9c0-9.8,0-19.6,0-29.4c0-10.4,0-20.9,0-31.3
				c0-10.4,0-20.9,0-31.3c0-20.2-0.1-40.4,0-60.6c0-6.6,0.1-13.3,0.1-19.9c0-0.6-0.1-1.2,0.4-1.7C252.3,25.7,253.4,25.7,254.4,25.7z
				"/>
			<path class="st86" d="M259.4,229.5c-0.6-0.5-0.4-1.2-0.4-1.8c0-66,0-132,0-198.1c0-0.8,0-1.5,0.4-2.2c2.9,1,5.5,2.5,7.7,4.7
				c0,15.6,0,31.3,0,46.9c0,47.3,0,94.7,0,142c0,2,0,4,0.1,6C264.7,228,262.1,228.9,259.4,229.5z"/>
			<path class="st100" d="M267.3,227c-0.5-0.1-0.7-0.3-0.7-0.8s0-0.9,0-1.4c0-63.5,0-127,0-190.5c0-0.7-0.5-1.7,0.6-2.2
				c2.7,2.5,5.1,5.3,6.4,8.9c-0.1,1.4,0,2.8,0,4.3c0,58.8,0,117.6,0,176.4c0,1.2,0.3,2.5-0.6,3.6C271.1,226,269.2,226.5,267.3,227z"
				/>
			<path class="st29" d="M287.2,220.6c-2.8,1.2-5.7,2-8.6,2.8c-0.6-0.6-0.5-1.3-0.6-2c0-1,0-2,0-3c0-53.7,0-107.4,0-161.1
				c0-0.9-0.1-1.9,0.1-2.8c0.1-0.7,0.2-1.5,1.2-1.4c2.7,4.7,5,9.7,7.4,14.6c-0.4,1,0,2,0,3c0,48.6,0,97.2,0,145.8
				C286.7,217.8,286.6,219.3,287.2,220.6z"/>
			<path class="st61" d="M287.2,220.6c-0.8-0.1-1.1-0.5-1.1-1.3c0-0.5,0-0.9,0-1.4c0-49.1,0-98.2,0-147.4c0-1-0.2-2,0.6-2.9
				c1.3,2.6,2.6,5.1,3.8,7.7c1.4,2.9,3,5.6,4.1,8.6c0.4,2.6,0.2,5.2,0.2,7.8c0,40.5,0,81,0,121.5c0,1.6,0,3.2,0.2,4.8
				C292.5,219.2,289.9,220,287.2,220.6z"/>
			<path class="st9" d="M279.3,53.1c-1.1,0.5-0.7,1.5-0.7,2.4c0,28.6,0,57.2,0,85.9c0,27.4,0,54.7,0,82.1c-1.8,0.8-3.7,1.4-5.7,1.8
				c0-60.7,0-121.4,0-182.1c0-0.7-0.5-1.7,0.6-2.2C275.5,45,277.7,48.9,279.3,53.1z"/>
			<path class="st33" d="M295,218.1c-0.5-0.1-0.8-0.3-0.8-0.8s0-1.1,0-1.6c0-43.2,0-86.3,0-129.5c0-0.7-0.3-1.5,0.3-2.2
				c2,4,4.3,7.9,6,12.1c-0.4,1-0.1,2.1-0.1,3.2c0,35.1,0,70.1,0,105.2c0,4-0.1,7.9,0.1,11.9C298.9,217.1,297,217.6,295,218.1z"/>
			<path class="st11" d="M300.7,216.3c-0.8-0.4-0.7-1.1-0.7-1.8c0-38.9,0-77.9,0-116.8c0-0.6-0.3-1.4,0.6-1.6c2,4,4,8.1,6,12.1
				c0.3,1.6,0.3,3.3,0.3,5c0,32.6,0,65.3,0,97.9c0,1.2,0.3,2.4-0.6,3.4C304.5,215.3,302.6,215.8,300.7,216.3z"/>
			<path class="st101" d="M306.4,214.5c0-34.7,0-69.5,0-104.2c0-0.7-0.2-1.4,0.3-2.1c2.6,5.2,5.3,10.3,7.6,15.6
				c-0.3,1.3-0.2,2.6-0.2,3.9c0,8.2-0.2,16.4,0,24.5c0.3,12.5,0.2,25,0.1,37.5c0,7.2-0.2,14.3,0,21.5c0,0.3-0.1,0.6-0.2,0.8
				C311.4,213.1,308.9,213.9,306.4,214.5z"/>
			<path class="st102" d="M313.9,212.1c-0.3-1-0.4-1.9-0.4-3c0-5.2-0.1-10.3,0-15.5c0.3-12.4,0.1-24.8,0.1-37.3c0-10-0.1-20-0.1-30
				c0-0.9-0.1-1.9,0.7-2.6c1.7,2.9,3.2,5.9,4.5,8.9c0.5,2.6,0.3,5.3,0.3,7.9c0,22.2,0,44.4,0,66.7c0,1.1,0.2,2.3-0.6,3.3
				C317,211.4,315.4,211.8,313.9,212.1z"/>
			<path class="st103" d="M334.9,138.8c2,0.1,4,0.3,6,0.7c-0.2,1.9-0.2,3.8-0.2,5.7c0,18.9,0,37.8,0,56.6c0,0.6,0,1.2-0.2,1.8
				c-1.7,0.8-3.5,1.3-5.4,1.7c-0.9,0.4-1.3,0-1.5-0.9c-0.2-0.7-0.1-1.4-0.1-2.1c0-20.2,0-40.4,0-60.6c0-0.7,0-1.4,0.1-2.1
				C333.8,139,334.1,138.4,334.9,138.8z"/>
			<path class="st32" d="M334.9,138.8c-1.2,0.2-0.8,1.2-0.8,1.9c0,7.7,0,15.4,0,23.1c0,13.2,0,26.4,0,39.7c0,0.8-0.5,1.9,1.1,1.9
				c-1.8,0.8-3.7,1.4-5.7,1.8c-1.1,0.3-1.4-0.4-1.6-1.2c-0.2-0.7-0.1-1.4-0.1-2.1c0-20.9,0-41.9,0-62.8c0-0.7,0-1.4,0.2-2.1
				c0.2-0.6,0.4-1.2,1.2-0.8C331.1,138.1,333,138.3,334.9,138.8z"/>
			<path class="st89" d="M329.2,138c-1.2,0.2-0.8,1.2-0.8,1.9c0,6.9,0,13.9,0,20.8c0,14.7,0,29.5,0,44.2c0,0.9-0.3,2,1.1,2.2
				c-2.1,1-4.3,1.5-6.5,2.1c-0.7-0.7-0.6-1.5-0.6-2.3c0-22.4,0-44.8,0-67.2c0-0.9-0.3-2,1-2.3C325.4,137.4,327.3,137.6,329.2,138z"
				/>
			<path class="st44" d="M323.5,137.3c-0.7,0.6-0.4,1.5-0.4,2.2c0,23.2,0,46.4,0,69.7c-1.5,0.7-3,1.1-4.6,1.5c0-25.4,0-50.8,0-76.2
				c0-0.6-0.2-1.2,0.3-1.7c0.2,0.4,0.5,0.8,0.7,1.2C320,136,321.2,137.3,323.5,137.3z"/>
			<path class="st104" d="M340.6,203.6c-0.6-0.5-0.4-1.2-0.4-1.8c0-20.2,0-40.4,0-60.5c0-0.6-0.4-1.5,0.7-1.7
				c1.9,0.1,3.8,0.2,5.7,0.7c-1.2,1.1-1.4,2.6-1.2,4.1c0.3,1.9,0.3,3.9,0.3,5.9c0,16.3,0,32.6,0,48.9c0,1.1,0.2,2.2-0.6,3.1
				C343.7,202.8,342.2,203.3,340.6,203.6z"/>
			<path class="st10" d="M349.4,140.5c1.9,0,3.9,0.2,5.7,0.7c0.2,0.6,0.2,1.3,0.2,1.9c0,12.7,0,25.3,0,38c0,3.5,0.1,7.1-0.3,10.6
				c-0.3,2.3,0,4.7,0.1,7.1c-1.8,0.8-3.8,1.4-5.7,1.8c-0.7-0.7-0.6-1.5-0.6-2.3c0-18.5,0-37,0-55.6
				C348.8,142.1,348.7,141.2,349.4,140.5z"/>
			<path class="st64" d="M369.7,194.3c-1.8,0.8-3.8,1.3-5.7,1.8c-0.7-0.7-0.6-1.5-0.6-2.3c0-16.4,0-32.7,0-49.1
				c0-0.8-0.1-1.7,0.6-2.3c1.9,0.5,3.8,0,5.7,0.7c0.6,0.7,0.6,1.5,0.6,2.4c0,15.5,0,31,0,46.5C370.3,192.7,370.3,193.6,369.7,194.3z
				"/>
			<path class="st20" d="M369.7,194.3c0-17.1,0-34.2,0-51.2c1.9,0.5,3.9,0,5.7,0.7c0.2,0.6,0.2,1.3,0.2,1.9c0,14.6,0,29.2,0,43.8
				c0,1.1,0.1,2.1-0.5,3.1C373.3,193.3,371.5,193.8,369.7,194.3z"/>
			<path class="st45" d="M355.1,198.9c-0.7-0.5-0.8-1.3-0.8-2.1c0.7-18.1,0.2-36.2,0.4-54.3c0-0.5-0.1-1,0.4-1.3
				c1.9,0,3.8,0.2,5.7,0.7c-0.7,0.9-0.9,2-0.9,3.2c0,16.9-0.1,33.9,0.1,50.8c0,0.5,0.1,1.1-0.3,1.5
				C358.2,198.1,356.7,198.6,355.1,198.9z"/>
			<path class="st43" d="M349.4,140.5c0,20.1,0,40.2,0,60.2c-1.4,0.6-2.8,1.1-4.3,1.4c0-18.2,0-36.3,0-54.5c0-1.8-0.6-3.6-0.4-5.5
				c0.1-1.1,0.3-2.2,1.8-2C347.5,140.2,348.5,140.1,349.4,140.5z"/>
			<path class="st65" d="M375,192.6c0-15.8,0-31.7,0-47.5c0-0.5-0.1-1,0.4-1.3c1.9,0.1,3.8,0.2,5.7,0.7c-0.3,7.6-0.1,15.3-0.1,22.9
				c0,7.2,0,14.3,0,21.5c0,0.7,0,1.3-0.2,1.9C378.9,191.6,377,192,375,192.6z"/>
			<path class="st19" d="M359.7,197.5c-0.2-0.7-0.4-1.5-0.4-2.3c0-17.1,0-34.1,0-51.2c0-1.1,0-2.1,1.5-2c1.1,0,2.1,0,3.1,0.4
				c0,17.9,0,35.8,0,53.8C362.6,196.8,361.2,197.2,359.7,197.5z"/>
			<path class="st46" d="M413.1,180.4c-2.2,0.9-4.4,1.6-6.7,2.1c-1.1-0.2-0.9-1.1-0.9-1.8c-0.1-1.8,0-3.5,0-5.3c0-8.2,0-16.3,0-24.5
				c0-0.8-0.1-1.5,0.1-2.3c0.1-0.6,0.3-1.4,1.3-1c2,0.1,4,0.3,6,0.7c0.6,0.6,0.6,1.4,0.6,2.2c0,9.5,0,19,0,28.5
				C413.3,179.5,413.2,180,413.1,180.4z"/>
			<path class="st50" d="M380.8,190.7c-0.6-0.4-0.4-1.1-0.4-1.6c0-14.3,0-28.6,0-42.9c0-0.6-0.4-1.5,0.7-1.7c1.9,0,3.8,0.2,5.7,0.7
				c-0.7,0.9-0.9,1.9-0.9,3c0,12.6,0,25.2,0,37.9c0,1,0.2,2,0.5,2.9C384.6,189.7,382.7,190.3,380.8,190.7z"/>
			<path class="st14" d="M406.8,147.6c-0.8,0.1-0.8,0.7-0.8,1.3c0,10.8,0,21.7,0,32.5c0,0.4,0,0.8,0.4,1.1c-2.1,0.9-4.3,1.5-6.5,2.1
				c-0.7-0.7-0.6-1.5-0.6-2.3c0-11,0-22,0-33c0-2.2,0.2-2.4,1.7-2.4C403,147,404.9,147.2,406.8,147.6z"/>
			<path class="st16" d="M389.9,145.5c1.8,0,3.6,0.2,5.3,0.7c0.6,0.7,0.6,1.5,0.6,2.4c0,11.7,0,23.4,0,35.2c0,0.8,0,1.7-0.6,2.4
				c-1.5,0.7-3,1.1-4.5,1.5c-1,0.1-1.1-0.7-1.3-1.4c-0.1-0.7-0.1-1.4-0.1-2.1c0-11.8,0-23.6,0-35.5
				C389.4,147.6,389.1,146.4,389.9,145.5z"/>
			<path class="st105" d="M418.8,149.1c2.7,0.2,5.3,0.4,7.8,1.4c0.2,0.6,0.2,1.3,0.2,1.9c0,7,0,13.9,0,20.9c0,1,0.1,2-0.5,2.9
				c-2.4,1-5,1.7-7.5,2.4c-0.7-0.7-0.6-1.5-0.6-2.3c0-8.3,0-16.5,0-24.8C418.2,150.6,418.1,149.8,418.8,149.1z"/>
			<path class="st95" d="M389.9,145.5c0,13.2,0,26.5,0,39.7c0,0.8-0.3,1.8,0.8,2.3c-1.4,0.6-2.8,1.1-4.3,1.4c-1.4,0.1-1.1-1-1.1-1.7
				c0-6.8,0-13.6,0-20.4c0-6.6,0-13.3,0-19.9c0-1.1,0.1-1.9,1.5-1.7C387.9,145.2,388.9,145.1,389.9,145.5z"/>
			<path class="st13" d="M418.8,149.1c0,9.8,0,19.7,0,29.5c-1.8,0.8-3.7,1.4-5.7,1.8c-0.6-0.5-0.4-1.2-0.4-1.8c0-10.1,0-20.1,0-30.2
				C414.8,148.4,416.8,148.7,418.8,149.1z"/>
			<path class="st94" d="M395.3,186.1c0-13.3,0-26.6,0-39.9c1.9,0.1,3.9,0.3,5.8,0.7c-1.1-0.1-1.2,0.7-1.2,1.5c0,4.3,0,8.5,0,12.8
				c0,7.8,0,15.6,0,23.4C398.4,185.3,396.9,185.7,395.3,186.1z"/>
			<path class="st1" d="M426.3,176.2c0-8.1,0-16.3,0-24.4c0-0.5-0.1-1,0.4-1.3c2.8,0.7,5.3,1.9,7.4,3.9c-0.2,5.5,0,11.1-0.1,16.6
				c0,1,0.1,2-0.6,2.9C431,174.9,428.7,175.6,426.3,176.2z"/>
			<path class="st47" d="M433.3,174c0-5.9,0-11.8,0-17.7c0-0.6-0.4-1.5,0.6-1.8c5.2,3.8,8.4,8.9,10.2,15c0.3,1-0.1,1.2-0.9,1.5
				C440,171.9,436.7,172.9,433.3,174z"/>
		</g>
		<path class="st106" d="M250.2,232.1L131.3,395c7.4,5.5,17.6,7.2,27.1,2.5l91-44.2l92.4,43.9c9.6,4.5,20.3,2.3,27.6-3.2
			L250.2,232.1z"/>
		<path class="st107" d="M55.4,169.1c-1.1,6.8,0.6,15,6,20.8l74.7,81.1l-14.5,99.6c-1.5,10.1,2.8,19,9.7,24.4l118.9-163L55.4,169.1z
			"/>
		<path class="st108" d="M444.1,170.1L250.2,232l119.3,162c7-5.5,11.3-14.6,9.6-24.7l-15.8-98.8l73.7-75.7
			C443.9,187.7,445.9,178.4,444.1,170.1"/>
	</g>
</g>
</svg>
